<svg width="20" height="20" viewBox="0 0 20 20" fill="none" xmlns="http://www.w3.org/2000/svg">
<g clip-path="url(#clip0_67_6649)">
<path d="M3.33014 1.66504V18.3157L4.99521 17.4832L6.66028 18.3157L8.32535 17.4832L9.99042 18.3157L11.6555 17.4832L13.3206 18.3157L14.9856 17.4832L16.6507 18.3157V1.66504L14.9856 2.49757L13.3206 1.66504L11.6555 2.49757L9.99042 1.66504L8.32535 2.49757L6.66028 1.66504L4.99521 2.49757L3.33014 1.66504Z" stroke="#00093B" stroke-width="2.08134" stroke-linecap="round" stroke-linejoin="round"/>
<path d="M13.3206 6.66016H8.32535C7.88374 6.66016 7.46023 6.83558 7.14797 7.14784C6.83571 7.46011 6.66028 7.88362 6.66028 8.32523C6.66028 8.76683 6.83571 9.19035 7.14797 9.50261C7.46023 9.81487 7.88374 9.99029 8.32535 9.99029H11.6555C12.0971 9.99029 12.5206 10.1657 12.8329 10.478C13.1451 10.7902 13.3206 11.2138 13.3206 11.6554C13.3206 12.097 13.1451 12.5205 12.8329 12.8327C12.5206 13.145 12.0971 13.3204 11.6555 13.3204H6.66028" stroke="#00093B" stroke-width="2.08134" stroke-linecap="round" stroke-linejoin="round"/>
<path d="M9.99042 14.5695V5.41162" stroke="#00093B" stroke-width="2.08134" stroke-linecap="round" stroke-linejoin="round"/>
</g>
<defs>
<clipPath id="clip0_67_6649">
<rect width="19.9808" height="19.9808" fill="white"/>
</clipPath>
</defs>
</svg>
