<svg width="16" height="16" viewBox="0 0 16 16" fill="none" xmlns="http://www.w3.org/2000/svg">
<g clip-path="url(#clip0_46_3559)">
<path d="M7.33158 14.4833C7.53423 14.6003 7.7641 14.6619 7.99809 14.6619C8.23209 14.6619 8.46196 14.6003 8.6646 14.4833L13.3302 11.8173C13.5326 11.7004 13.7008 11.5323 13.8177 11.33C13.9347 11.1276 13.9964 10.898 13.9967 10.6642V5.33216C13.9964 5.0984 13.9347 4.86881 13.8177 4.66643C13.7008 4.46404 13.5326 4.29598 13.3302 4.1791L8.6646 1.51306C8.46196 1.39607 8.23209 1.33447 7.99809 1.33447C7.7641 1.33447 7.53423 1.39607 7.33158 1.51306L2.66602 4.1791C2.46358 4.29598 2.29543 4.46404 2.17844 4.66643C2.06146 4.86881 1.99975 5.0984 1.99951 5.33216V10.6642C1.99975 10.898 2.06146 11.1276 2.17844 11.33C2.29543 11.5323 2.46358 11.7004 2.66602 11.8173L7.33158 14.4833Z" stroke="#717182" stroke-width="1.33302" stroke-linecap="round" stroke-linejoin="round"/>
<path d="M7.99811 14.6631V7.99805" stroke="#717182" stroke-width="1.33302" stroke-linecap="round" stroke-linejoin="round"/>
<path d="M2.19281 4.66553L7.9981 7.99807L13.8034 4.66553" stroke="#717182" stroke-width="1.33302" stroke-linecap="round" stroke-linejoin="round"/>
<path d="M4.99881 2.84595L10.9974 6.27847" stroke="#717182" stroke-width="1.33302" stroke-linecap="round" stroke-linejoin="round"/>
</g>
<defs>
<clipPath id="clip0_46_3559">
<rect width="15.9962" height="15.9962" fill="white"/>
</clipPath>
</defs>
</svg>
