<svg width="40" height="40" viewBox="0 0 40 40" fill="none" xmlns="http://www.w3.org/2000/svg">
<path d="M0 19.9905C0 8.95003 8.95003 0 19.9905 0C31.0309 0 39.9809 8.95003 39.9809 19.9905C39.9809 31.0309 31.0309 39.9809 19.9905 39.9809C8.95003 39.9809 0 31.0309 0 19.9905Z" fill="#5A0000"/>
<g clip-path="url(#clip0_61_5673)">
<path d="M22.2479 15.2451C22.0954 15.4007 22.0099 15.6099 22.0099 15.8279C22.0099 16.0458 22.0954 16.255 22.2479 16.4106L23.58 17.7427C23.7356 17.8952 23.9448 17.9807 24.1628 17.9807C24.3807 17.9807 24.5899 17.8952 24.7455 17.7427L27.3314 15.1577C27.5978 14.8896 28.0499 14.9745 28.1498 15.3392C28.4013 16.254 28.3871 17.2216 28.1088 18.1286C27.8305 19.0357 27.2996 19.8448 26.5783 20.4611C25.8569 21.0775 24.975 21.4756 24.0356 21.609C23.0962 21.7424 22.1383 21.6055 21.2739 21.2144L14.6885 27.7997C14.3573 28.1308 13.9081 28.3168 13.4398 28.3167C12.9715 28.3166 12.5224 28.1305 12.1913 27.7993C11.8602 27.4681 11.6743 27.0189 11.6743 26.5506C11.6744 26.0823 11.8605 25.6332 12.1917 25.3021L18.7771 18.7168C18.3859 17.8523 18.249 16.8944 18.3824 15.955C18.5158 15.0156 18.914 14.1337 19.5303 13.4124C20.1467 12.691 20.9557 12.1601 21.8628 11.8818C22.7699 11.6035 23.7374 11.5893 24.6523 11.8408C25.0169 11.9408 25.1019 12.392 24.8346 12.6601L22.2479 15.2451Z" stroke="white" stroke-width="2.08134" stroke-linecap="round" stroke-linejoin="round"/>
</g>
<defs>
<clipPath id="clip0_61_5673">
<rect width="19.9808" height="19.9808" fill="white" transform="translate(10.0097 10)"/>
</clipPath>
</defs>
</svg>
