<svg width="20" height="20" viewBox="0 0 20 20" fill="none" xmlns="http://www.w3.org/2000/svg">
<g clip-path="url(#clip0_61_5752)">
<path d="M12.2383 5.24508C12.0857 5.40071 12.0003 5.60994 12.0003 5.82786C12.0003 6.04577 12.0857 6.25501 12.2383 6.41063L13.5703 7.74269C13.7259 7.89523 13.9352 7.98067 14.1531 7.98067C14.371 7.98067 14.5802 7.89523 14.7359 7.74269L17.3217 5.15767C17.5881 4.88959 18.0402 4.97451 18.1401 5.33916C18.3916 6.25401 18.3774 7.22158 18.0991 8.12864C17.8208 9.03571 17.2899 9.84475 16.5686 10.4611C15.8473 11.0775 14.9653 11.4756 14.0259 11.609C13.0866 11.7424 12.1286 11.6055 11.2642 11.2144L4.67885 17.7997C4.34765 18.1308 3.89849 18.3168 3.43017 18.3167C2.96186 18.3166 2.51276 18.1305 2.18166 17.7993C1.85057 17.4681 1.66461 17.0189 1.66469 16.5506C1.66477 16.0823 1.85088 15.6332 2.18208 15.3021L8.76743 8.71675C8.37626 7.85234 8.23936 6.8944 8.37275 5.95502C8.50615 5.01565 8.90432 4.13369 9.52067 3.41235C10.137 2.69101 10.9461 2.16013 11.8531 1.88183C12.7602 1.60353 13.7278 1.58931 14.6426 1.84085C15.0073 1.94075 15.0922 2.39199 14.825 2.66006L12.2383 5.24508Z" stroke="#5A0000" stroke-width="2.08134" stroke-linecap="round" stroke-linejoin="round"/>
</g>
<defs>
<clipPath id="clip0_61_5752">
<rect width="19.9808" height="19.9808" fill="white"/>
</clipPath>
</defs>
</svg>
