<svg width="20" height="20" viewBox="0 0 20 20" fill="none" xmlns="http://www.w3.org/2000/svg">
<g clip-path="url(#clip0_92_737)">
<path d="M14.9856 1.66504H4.99521C4.07562 1.66504 3.33014 2.41052 3.33014 3.33011V16.6507C3.33014 17.5703 4.07562 18.3157 4.99521 18.3157H14.9856C15.9052 18.3157 16.6507 17.5703 16.6507 16.6507V3.33011C16.6507 2.41052 15.9052 1.66504 14.9856 1.66504Z" stroke="#5A0000" stroke-width="1.66507" stroke-linecap="round" stroke-linejoin="round"/>
<path d="M6.66028 4.99512H13.3206" stroke="#5A0000" stroke-width="1.66507" stroke-linecap="round" stroke-linejoin="round"/>
<path d="M13.3206 11.6553V14.9854" stroke="#5A0000" stroke-width="1.66507" stroke-linecap="round" stroke-linejoin="round"/>
<path d="M13.3206 8.3252H13.3289" stroke="#5A0000" stroke-width="1.66507" stroke-linecap="round" stroke-linejoin="round"/>
<path d="M9.99042 8.3252H9.99874" stroke="#5A0000" stroke-width="1.66507" stroke-linecap="round" stroke-linejoin="round"/>
<path d="M6.66028 8.3252H6.6686" stroke="#5A0000" stroke-width="1.66507" stroke-linecap="round" stroke-linejoin="round"/>
<path d="M9.99042 11.6553H9.99874" stroke="#5A0000" stroke-width="1.66507" stroke-linecap="round" stroke-linejoin="round"/>
<path d="M6.66028 11.6553H6.6686" stroke="#5A0000" stroke-width="1.66507" stroke-linecap="round" stroke-linejoin="round"/>
<path d="M9.99042 14.9854H9.99874" stroke="#5A0000" stroke-width="1.66507" stroke-linecap="round" stroke-linejoin="round"/>
<path d="M6.66028 14.9854H6.6686" stroke="#5A0000" stroke-width="1.66507" stroke-linecap="round" stroke-linejoin="round"/>
</g>
<defs>
<clipPath id="clip0_92_737">
<rect width="19.9808" height="19.9808" fill="white"/>
</clipPath>
</defs>
</svg>
