<svg width="20" height="20" viewBox="0 0 20 20" fill="none" xmlns="http://www.w3.org/2000/svg">
<g clip-path="url(#clip0_71_8013)">
<path d="M11.5156 13.7934C11.6876 13.8724 11.8813 13.8904 12.0648 13.8446C12.2484 13.7987 12.4109 13.6917 12.5255 13.5411L12.821 13.154C12.9761 12.9472 13.1772 12.7794 13.4084 12.6638C13.6397 12.5482 13.8946 12.488 14.1531 12.488H16.6507C17.0923 12.488 17.5158 12.6634 17.8281 12.9757C18.1403 13.2879 18.3158 13.7115 18.3158 14.1531V16.6507C18.3158 17.0923 18.1403 17.5158 17.8281 17.828C17.5158 18.1403 17.0923 18.3157 16.6507 18.3157C12.6763 18.3157 8.86461 16.7369 6.05426 13.9265C3.24391 11.1162 1.66507 7.30454 1.66507 3.33011C1.66507 2.8885 1.8405 2.46499 2.15276 2.15273C2.46502 1.84047 2.88853 1.66504 3.33014 1.66504H5.82774C6.26935 1.66504 6.69286 1.84047 7.00512 2.15273C7.31739 2.46499 7.49281 2.8885 7.49281 3.33011V5.82771C7.49281 6.08621 7.43263 6.34115 7.31703 6.57235C7.20142 6.80356 7.03358 7.00467 6.82678 7.15977L6.43716 7.45199C6.28432 7.56869 6.17659 7.7347 6.13228 7.92183C6.08796 8.10895 6.10979 8.30565 6.19406 8.4785C7.33187 10.7895 9.20319 12.6585 11.5156 13.7934Z" stroke="#00093B" stroke-width="2.08134" stroke-linecap="round" stroke-linejoin="round"/>
</g>
<defs>
<clipPath id="clip0_71_8013">
<rect width="19.9808" height="19.9808" fill="white"/>
</clipPath>
</defs>
</svg>
