<svg width="40" height="40" viewBox="0 0 40 40" fill="none" xmlns="http://www.w3.org/2000/svg">
<path d="M0 19.9905C0 8.95003 8.95003 0 19.9905 0C31.0309 0 39.9809 8.95003 39.9809 19.9905C39.9809 31.0309 31.0309 39.9809 19.9905 39.9809C8.95003 39.9809 0 31.0309 0 19.9905Z" fill="#F5F5F7"/>
<g clip-path="url(#clip0_46_847)">
<path d="M21.5253 23.7934C21.6972 23.8724 21.8909 23.8904 22.0745 23.8446C22.2581 23.7987 22.4205 23.6917 22.5352 23.5411L22.8307 23.154C22.9858 22.9472 23.1869 22.7794 23.4181 22.6638C23.6493 22.5482 23.9043 22.488 24.1628 22.488H26.6604C27.102 22.488 27.5255 22.6634 27.8377 22.9757C28.15 23.2879 28.3254 23.7115 28.3254 24.1531V26.6507C28.3254 27.0923 28.15 27.5158 27.8377 27.828C27.5255 28.1403 27.102 28.3157 26.6604 28.3157C22.6859 28.3157 18.8743 26.7369 16.0639 23.9265C13.2536 21.1162 11.6747 17.3045 11.6747 13.3301C11.6747 12.8885 11.8502 12.465 12.1624 12.1527C12.4747 11.8405 12.8982 11.665 13.3398 11.665H15.8374C16.279 11.665 16.7025 11.8405 17.0148 12.1527C17.3271 12.465 17.5025 12.8885 17.5025 13.3301V15.8277C17.5025 16.0862 17.4423 16.3411 17.3267 16.5724C17.2111 16.8036 17.0433 17.0047 16.8365 17.1598L16.4468 17.452C16.294 17.5687 16.1863 17.7347 16.142 17.9218C16.0976 18.109 16.1195 18.3056 16.2037 18.4785C17.3415 20.7895 19.2129 22.6585 21.5253 23.7934Z" stroke="#5A0000" stroke-width="1.66507" stroke-linecap="round" stroke-linejoin="round"/>
</g>
<defs>
<clipPath id="clip0_46_847">
<rect width="19.9808" height="19.9808" fill="white" transform="translate(10.0097 10)"/>
</clipPath>
</defs>
</svg>
