<svg width="104" height="104" viewBox="0 0 104 104" fill="none" xmlns="http://www.w3.org/2000/svg">
<g filter="url(#filter0_dd_94_1636)">
<path d="M12 41.9905C12 19.9044 29.9044 2 51.9905 2C74.0767 2 91.9811 19.9044 91.9811 41.9905C91.9811 64.0767 74.0767 81.9811 51.9905 81.9811C29.9044 81.9811 12 64.0767 12 41.9905Z" fill="url(#paint0_linear_94_1636)" shape-rendering="crispEdges"/>
<path d="M63.6516 40.3242H40.3294C38.4894 40.3242 36.9977 41.8159 36.9977 43.656V55.3171C36.9977 57.1571 38.4894 58.6488 40.3294 58.6488H63.6516C65.4917 58.6488 66.9834 57.1571 66.9834 55.3171V43.656C66.9834 41.8159 65.4917 40.3242 63.6516 40.3242Z" stroke="white" stroke-width="3.33174" stroke-linecap="round" stroke-linejoin="round"/>
<path d="M43.6613 40.3249V33.6614C43.6613 31.4523 44.5388 29.3337 46.1009 27.7716C47.6629 26.2096 49.7815 25.332 51.9906 25.332C54.1997 25.332 56.3183 26.2096 57.8804 27.7716C59.4424 29.3337 60.32 31.4523 60.32 33.6614V40.3249" stroke="white" stroke-width="3.33174" stroke-linecap="round" stroke-linejoin="round"/>
</g>
<defs>
<filter id="filter0_dd_94_1636" x="0" y="0" width="103.981" height="103.981" filterUnits="userSpaceOnUse" color-interpolation-filters="sRGB">
<feFlood flood-opacity="0" result="BackgroundImageFix"/>
<feColorMatrix in="SourceAlpha" type="matrix" values="0 0 0 0 0 0 0 0 0 0 0 0 0 0 0 0 0 0 127 0" result="hardAlpha"/>
<feMorphology radius="4" operator="erode" in="SourceAlpha" result="effect1_dropShadow_94_1636"/>
<feOffset dy="4"/>
<feGaussianBlur stdDeviation="3"/>
<feComposite in2="hardAlpha" operator="out"/>
<feColorMatrix type="matrix" values="0 0 0 0 0 0 0 0 0 0 0 0 0 0 0 0 0 0 0.1 0"/>
<feBlend mode="normal" in2="BackgroundImageFix" result="effect1_dropShadow_94_1636"/>
<feColorMatrix in="SourceAlpha" type="matrix" values="0 0 0 0 0 0 0 0 0 0 0 0 0 0 0 0 0 0 127 0" result="hardAlpha"/>
<feMorphology radius="3" operator="erode" in="SourceAlpha" result="effect2_dropShadow_94_1636"/>
<feOffset dy="10"/>
<feGaussianBlur stdDeviation="7.5"/>
<feComposite in2="hardAlpha" operator="out"/>
<feColorMatrix type="matrix" values="0 0 0 0 0 0 0 0 0 0 0 0 0 0 0 0 0 0 0.1 0"/>
<feBlend mode="normal" in2="effect1_dropShadow_94_1636" result="effect2_dropShadow_94_1636"/>
<feBlend mode="normal" in="SourceGraphic" in2="effect2_dropShadow_94_1636" result="shape"/>
</filter>
<linearGradient id="paint0_linear_94_1636" x1="51.9905" y1="2" x2="51.9905" y2="81.9811" gradientUnits="userSpaceOnUse">
<stop stop-color="#5A0000"/>
<stop offset="1" stop-color="#8B0000"/>
</linearGradient>
</defs>
</svg>
