<svg width="20" height="20" viewBox="0 0 20 20" fill="none" xmlns="http://www.w3.org/2000/svg">
<path d="M2.4909 13.605C2.61332 13.9138 2.64057 14.2522 2.56916 14.5766L1.68251 17.3156C1.65394 17.4545 1.66133 17.5984 1.70397 17.7337C1.74661 17.8689 1.82309 17.991 1.92616 18.0884C2.02924 18.1858 2.15548 18.2553 2.29292 18.2902C2.43037 18.3251 2.57445 18.3244 2.71152 18.288L5.55296 17.4571C5.8591 17.3964 6.17614 17.423 6.46792 17.5337C8.2457 18.3639 10.2596 18.5396 12.1543 18.0297C14.0489 17.5198 15.7026 16.3571 16.8236 14.7467C17.9445 13.1363 18.4607 11.1818 18.281 9.22799C18.1013 7.27414 17.2373 5.44655 15.8415 4.06764C14.4456 2.68874 12.6076 1.84714 10.6517 1.69134C8.69583 1.53554 6.74776 2.07554 5.15122 3.21608C3.55467 4.35661 2.41225 6.02439 1.92552 7.92514C1.43879 9.8259 1.63903 11.8375 2.4909 13.605Z" stroke="white" stroke-width="1.66507" stroke-linecap="round" stroke-linejoin="round"/>
</svg>
