<svg width="20" height="20" viewBox="0 0 20 20" fill="none" xmlns="http://www.w3.org/2000/svg">
<g clip-path="url(#clip0_71_8065)">
<path d="M16.6507 16.6511C17.0923 16.6511 17.5158 16.4757 17.8281 16.1634C18.1403 15.8512 18.3158 15.4277 18.3158 14.9861V6.66072C18.3158 6.21912 18.1403 5.7956 17.8281 5.48334C17.5158 5.17108 17.0923 4.99565 16.6507 4.99565H10.0737C9.7952 4.99838 9.52049 4.93122 9.27469 4.80032C9.02888 4.66942 8.81984 4.47896 8.66669 4.24637L7.99233 3.24733C7.84072 3.01711 7.63432 2.82813 7.39166 2.69735C7.14899 2.56658 6.87766 2.49809 6.602 2.49805H3.33014C2.88853 2.49805 2.46502 2.67347 2.15276 2.98573C1.8405 3.298 1.66507 3.72151 1.66507 4.16312V14.9861C1.66507 15.4277 1.8405 15.8512 2.15276 16.1634C2.46502 16.4757 2.88853 16.6511 3.33014 16.6511H16.6507Z" stroke="#5A0000" stroke-width="2.08134" stroke-linecap="round" stroke-linejoin="round"/>
</g>
<defs>
<clipPath id="clip0_71_8065">
<rect width="19.9808" height="19.9808" fill="white"/>
</clipPath>
</defs>
</svg>
