<svg width="20" height="20" viewBox="0 0 20 20" fill="none" xmlns="http://www.w3.org/2000/svg">
<path d="M15.8182 5.82819V3.33058C15.8182 3.10978 15.7304 2.89802 15.5743 2.74189C15.4182 2.58576 15.2064 2.49805 14.9856 2.49805H4.16267C3.72107 2.49805 3.29755 2.67347 2.98529 2.98573C2.67303 3.298 2.4976 3.72151 2.4976 4.16312C2.4976 4.60472 2.67303 5.02824 2.98529 5.3405C3.29755 5.65276 3.72107 5.82819 4.16267 5.82819H16.6507C16.8715 5.82819 17.0833 5.9159 17.2394 6.07203C17.3955 6.22816 17.4832 6.43992 17.4832 6.66072V9.99086M17.4832 9.99086H14.9856C14.544 9.99086 14.1205 10.1663 13.8082 10.4785C13.496 10.7908 13.3206 11.2143 13.3206 11.6559C13.3206 12.0975 13.496 12.521 13.8082 12.8333C14.1205 13.1456 14.544 13.321 14.9856 13.321H17.4832C17.704 13.321 17.9158 13.2333 18.0719 13.0772C18.228 12.921 18.3158 12.7093 18.3158 12.4885V10.8234C18.3158 10.6026 18.228 10.3908 18.0719 10.2347C17.9158 10.0786 17.704 9.99086 17.4832 9.99086Z" stroke="#00A63E" stroke-width="1.66507" stroke-linecap="round" stroke-linejoin="round"/>
<path d="M2.4976 4.16309V15.8186C2.4976 16.2602 2.67303 16.6837 2.98529 16.996C3.29755 17.3082 3.72107 17.4836 4.16267 17.4836H16.6507C16.8715 17.4836 17.0833 17.3959 17.2394 17.2398C17.3955 17.0837 17.4832 16.8719 17.4832 16.6511V13.321" stroke="#00A63E" stroke-width="1.66507" stroke-linecap="round" stroke-linejoin="round"/>
</svg>
