<svg width="20" height="20" viewBox="0 0 20 20" fill="none" xmlns="http://www.w3.org/2000/svg">
<path d="M2.49759 11.6559H4.99519C5.4368 11.6559 5.86031 11.8314 6.17257 12.1436C6.48484 12.4559 6.66026 12.8794 6.66026 13.321V15.8186C6.66026 16.2602 6.48484 16.6837 6.17257 16.996C5.86031 17.3082 5.4368 17.4837 4.99519 17.4837H4.16266C3.72105 17.4837 3.29754 17.3082 2.98528 16.996C2.67302 16.6837 2.49759 16.2602 2.49759 15.8186V9.99086C2.49759 8.00364 3.28701 6.09782 4.69218 4.69264C6.09736 3.28747 8.00318 2.49805 9.9904 2.49805C11.9776 2.49805 13.8834 3.28747 15.2886 4.69264C16.6938 6.09782 17.4832 8.00364 17.4832 9.99086V15.8186C17.4832 16.2602 17.3078 16.6837 16.9955 16.996C16.6833 17.3082 16.2597 17.4837 15.8181 17.4837H14.9856C14.544 17.4837 14.1205 17.3082 13.8082 16.996C13.496 16.6837 13.3205 16.2602 13.3205 15.8186V13.321C13.3205 12.8794 13.496 12.4559 13.8082 12.1436C14.1205 11.8314 14.544 11.6559 14.9856 11.6559H17.4832" stroke="#5A0000" stroke-width="2.08134" stroke-linecap="round" stroke-linejoin="round"/>
</svg>
