<svg width="24" height="24" viewBox="0 0 24 24" fill="none" xmlns="http://www.w3.org/2000/svg">
<path d="M14.9904 20.9866V12.9917C14.9904 12.7266 14.8851 12.4724 14.6977 12.285C14.5103 12.0976 14.2561 11.9923 13.9911 11.9923H9.99363C9.72858 11.9923 9.47439 12.0976 9.28697 12.285C9.09955 12.4724 8.99426 12.7266 8.99426 12.9917V20.9866" stroke="#5A0000" stroke-width="1.99872" stroke-linecap="round" stroke-linejoin="round"/>
<path d="M2.99809 9.99367C2.99802 9.70292 3.06139 9.41566 3.18376 9.15192C3.30614 8.88818 3.48458 8.65432 3.70664 8.46664L10.7022 2.47047C11.0629 2.16557 11.52 1.99829 11.9924 1.99829C12.4647 1.99829 12.9218 2.16557 13.2825 2.47047L20.2781 8.46664C20.5001 8.65432 20.6786 8.88818 20.8009 9.15192C20.9233 9.41566 20.9867 9.70292 20.9866 9.99367V18.9879C20.9866 19.518 20.776 20.0264 20.4012 20.4012C20.0264 20.7761 19.518 20.9867 18.9879 20.9867H4.99682C4.46672 20.9867 3.95834 20.7761 3.58351 20.4012C3.20867 20.0264 2.99809 19.518 2.99809 18.9879V9.99367Z" stroke="#5A0000" stroke-width="1.99872" stroke-linecap="round" stroke-linejoin="round"/>
</svg>
