<svg width="256" height="256" viewBox="0 0 256 256" fill="none" xmlns="http://www.w3.org/2000/svg">
<path d="M127.998 237.996C188.748 237.996 237.996 188.748 237.996 127.998C237.996 67.2476 188.748 17.9997 127.998 17.9997C67.2477 17.9997 17.9998 67.2476 17.9998 127.998C17.9998 188.748 67.2477 237.996 127.998 237.996Z" fill="url(#paint0_linear_17_1115)"/>
<path d="M69.9995 139.998H39.9995C34.4767 139.998 29.9995 144.475 29.9995 149.998C29.9995 155.521 34.4767 159.998 39.9995 159.998H69.9995C75.5224 159.998 79.9995 155.521 79.9995 149.998C79.9995 144.475 75.5224 139.998 69.9995 139.998Z" fill="url(#paint1_linear_17_1115)"/>
<path d="M74.9991 171.998C84.9403 171.998 92.9991 162.148 92.9991 149.998C92.9991 137.848 84.9403 127.998 74.9991 127.998C65.058 127.998 56.9991 137.848 56.9991 149.998C56.9991 162.148 65.058 171.998 74.9991 171.998Z" fill="url(#paint2_linear_17_1115)"/>
<path d="M92.9987 143.998C92.9987 141.789 91.2078 139.998 88.9987 139.998C86.7895 139.998 84.9987 141.789 84.9987 143.998V150.998C84.9987 153.207 86.7895 154.998 88.9987 154.998C91.2078 154.998 92.9987 153.207 92.9987 150.998V143.998Z" fill="url(#paint3_linear_17_1115)"/>
<path d="M92.9987 158.998C92.9987 156.788 91.2078 154.998 88.9987 154.998C86.7895 154.998 84.9987 156.788 84.9987 158.998V162.998C84.9987 165.207 86.7895 166.998 88.9987 166.998C91.2078 166.998 92.9987 165.207 92.9987 162.998V158.998Z" fill="url(#paint4_linear_17_1115)"/>
<path d="M125.999 119.998H88.9987C86.7895 119.998 84.9987 121.789 84.9987 123.998V155.998C84.9987 158.207 86.7895 159.998 88.9987 159.998H125.999C128.208 159.998 129.999 158.207 129.999 155.998V123.998C129.999 121.789 128.208 119.998 125.999 119.998Z" fill="url(#paint5_linear_17_1115)"/>
<path opacity="0.6" d="M109.998 119.998H104.998V159.998H109.998V119.998Z" fill="#D97706"/>
<path opacity="0.6" d="M129.999 137.998H84.9987V142.998H129.999V137.998Z" fill="#D97706"/>
<path d="M107.498 149.998C113.021 149.998 117.498 145.521 117.498 139.998C117.498 134.475 113.021 129.998 107.498 129.998C101.976 129.998 97.4984 134.475 97.4984 139.998C97.4984 145.521 101.976 149.998 107.498 149.998Z" fill="url(#paint6_linear_17_1115)"/>
<path d="M101.998 139.998L105.998 143.998L112.998 136.998" stroke="white" stroke-width="2.49996" stroke-linecap="round" stroke-linejoin="round"/>
<path d="M159.998 171.998C169.939 171.998 177.998 162.148 177.998 149.998C177.998 137.848 169.939 127.998 159.998 127.998C150.057 127.998 141.998 137.848 141.998 149.998C141.998 162.148 150.057 171.998 159.998 171.998Z" fill="url(#paint7_linear_17_1115)"/>
<path d="M204.997 139.998H174.997C169.475 139.998 164.997 144.475 164.997 149.998C164.997 155.521 169.475 159.998 174.997 159.998H204.997C210.52 159.998 214.997 155.521 214.997 149.998C214.997 144.475 210.52 139.998 204.997 139.998Z" fill="url(#paint8_linear_17_1115)"/>
<path d="M157.998 143.998C157.998 141.789 156.207 139.998 153.998 139.998C151.789 139.998 149.998 141.789 149.998 143.998V150.998C149.998 153.207 151.789 154.998 153.998 154.998C156.207 154.998 157.998 153.207 157.998 150.998V143.998Z" fill="url(#paint9_linear_17_1115)"/>
<path d="M157.998 158.998C157.998 156.788 156.207 154.998 153.998 154.998C151.789 154.998 149.998 156.788 149.998 158.998V162.998C149.998 165.207 151.789 166.998 153.998 166.998C156.207 166.998 157.998 165.207 157.998 162.998V158.998Z" fill="url(#paint10_linear_17_1115)"/>
<path d="M141.998 29.9995H92.9985C88.5803 29.9995 84.9987 33.5812 84.9987 37.9994V131.998C84.9987 136.416 88.5803 139.998 92.9985 139.998H141.998C146.416 139.998 149.998 136.416 149.998 131.998V37.9994C149.998 33.5812 146.416 29.9995 141.998 29.9995Z" fill="url(#paint11_linear_17_1115)"/>
<path d="M141.998 37.9995H92.9986C90.7895 37.9995 88.9987 39.7904 88.9987 41.9995V127.998C88.9987 130.207 90.7895 131.998 92.9986 131.998H141.998C144.207 131.998 145.998 130.207 145.998 127.998V41.9995C145.998 39.7904 144.207 37.9995 141.998 37.9995Z" fill="url(#paint12_linear_17_1115)"/>
<path d="M125.998 33.9995H108.998C107.894 33.9995 106.998 34.8949 106.998 35.9995C106.998 37.1041 107.894 37.9995 108.998 37.9995H125.998C127.103 37.9995 127.998 37.1041 127.998 35.9995C127.998 34.8949 127.103 33.9995 125.998 33.9995Z" fill="#00093B"/>
<path d="M100.399 67.4471C100.039 67.4471 99.7004 67.4051 99.3824 67.3211C99.0644 67.2431 98.7794 67.1171 98.5274 66.9431C98.2814 66.7751 98.0864 66.5561 97.9424 66.2861C97.8044 66.0161 97.7354 65.6921 97.7354 65.3141C97.7354 65.2241 97.7444 65.0981 97.7624 64.9361C97.7864 64.7681 97.8344 64.5672 97.9064 64.3332C97.9784 64.0992 98.0924 63.8412 98.2484 63.5592L98.9054 63.8652C98.8154 64.0512 98.7404 64.2222 98.6804 64.3782C98.6204 64.5282 98.5754 64.6692 98.5454 64.8011C98.5214 64.9271 98.5094 65.0531 98.5094 65.1791C98.5094 65.5511 98.6024 65.8481 98.7884 66.0701C98.9804 66.2921 99.2324 66.4511 99.5444 66.5471C99.8624 66.6431 100.213 66.6911 100.597 66.6911C100.873 66.6911 101.131 66.6701 101.371 66.6281C101.611 66.5861 101.827 66.5261 102.019 66.4481C102.217 66.3701 102.391 66.2771 102.541 66.1691C102.691 66.0611 102.817 65.9411 102.919 65.8091C103.021 65.6831 103.096 65.5451 103.144 65.3951C103.204 65.2151 103.246 65.0171 103.27 64.8011C103.3 64.5852 103.315 64.4202 103.315 64.3062C103.315 63.9702 103.279 63.6882 103.207 63.4602C103.135 63.2262 103.036 63.0492 102.91 62.9292C102.79 62.8092 102.655 62.7492 102.505 62.7492C102.409 62.7492 102.316 62.7792 102.226 62.8392C102.142 62.8932 102.067 62.9682 102.001 63.0642C101.935 63.1602 101.881 63.2712 101.839 63.3972C101.803 63.5172 101.785 63.6432 101.785 63.7752C101.785 63.8832 101.809 63.9732 101.857 64.0452C101.905 64.1112 101.974 64.1652 102.064 64.2072C102.16 64.2432 102.28 64.2702 102.424 64.2882C102.568 64.3002 102.736 64.3062 102.928 64.3062H104.827C104.953 64.3062 105.043 64.3422 105.097 64.4142C105.157 64.4802 105.187 64.5612 105.187 64.6572C105.187 64.7531 105.145 64.8431 105.061 64.9271C104.977 65.0051 104.869 65.0441 104.737 65.0441H102.586C102.382 65.0441 102.19 65.0231 102.01 64.9811C101.83 64.9391 101.668 64.8731 101.524 64.7831C101.386 64.6932 101.275 64.5762 101.191 64.4322C101.113 64.2882 101.071 64.1142 101.065 63.9102C101.059 63.6882 101.092 63.4662 101.164 63.2442C101.242 63.0222 101.35 62.8182 101.488 62.6322C101.626 62.4462 101.788 62.2992 101.974 62.1912C102.16 62.0772 102.361 62.0202 102.577 62.0202C102.853 62.0202 103.102 62.1042 103.324 62.2722C103.546 62.4402 103.723 62.7042 103.855 63.0642C103.987 63.4182 104.053 63.8742 104.053 64.4322C104.053 64.5942 104.02 64.8161 103.954 65.0981C103.894 65.3801 103.804 65.6501 103.684 65.9081C103.54 66.1901 103.357 66.4271 103.135 66.6191C102.913 66.8171 102.658 66.9761 102.37 67.0961C102.088 67.2221 101.782 67.3121 101.452 67.3661C101.122 67.4201 100.771 67.4471 100.399 67.4471ZM103.216 61.0932C103.09 61.0932 102.982 61.0512 102.892 60.9672C102.808 60.8772 102.766 60.7722 102.766 60.6522C102.766 60.5322 102.808 60.4272 102.892 60.3372C102.982 60.2472 103.09 60.2022 103.216 60.2022C103.336 60.2022 103.438 60.2472 103.522 60.3372C103.612 60.4272 103.657 60.5322 103.657 60.6522C103.657 60.7722 103.612 60.8772 103.522 60.9672C103.438 61.0512 103.336 61.0932 103.216 61.0932ZM101.983 61.0932C101.857 61.0932 101.749 61.0512 101.659 60.9672C101.575 60.8772 101.533 60.7722 101.533 60.6522C101.533 60.5322 101.575 60.4272 101.659 60.3372C101.749 60.2472 101.857 60.2022 101.983 60.2022C102.103 60.2022 102.205 60.2472 102.289 60.3372C102.379 60.4272 102.424 60.5322 102.424 60.6522C102.424 60.7722 102.379 60.8772 102.289 60.9672C102.205 61.0512 102.103 61.0932 101.983 61.0932ZM104.734 65.0441L104.824 64.3062C104.974 64.3062 105.127 64.3062 105.283 64.3062C105.445 64.3002 105.604 64.2912 105.76 64.2792C105.916 64.2672 106.066 64.2522 106.21 64.2342C106.354 64.2162 106.483 64.1892 106.597 64.1532C106.807 64.0872 106.999 64.0002 107.173 63.8922C107.353 63.7842 107.497 63.6522 107.605 63.4962C107.719 63.3402 107.776 63.1602 107.776 62.9562C107.776 62.8182 107.743 62.6772 107.677 62.5332C107.611 62.3832 107.521 62.2572 107.407 62.1552C107.293 62.0532 107.161 62.0022 107.011 62.0022C106.867 62.0022 106.732 62.0502 106.606 62.1462C106.486 62.2422 106.387 62.3682 106.309 62.5242C106.237 62.6742 106.201 62.8302 106.201 62.9922C106.201 63.1842 106.249 63.3582 106.345 63.5142C106.447 63.6642 106.57 63.7932 106.714 63.9012C106.858 64.0092 107.002 64.0962 107.146 64.1622L106.291 64.4142C106.195 64.3422 106.081 64.2432 105.949 64.1172C105.823 63.9852 105.709 63.8232 105.607 63.6312C105.511 63.4392 105.463 63.2202 105.463 62.9742C105.463 62.7342 105.505 62.5122 105.589 62.3082C105.679 62.0982 105.796 61.9152 105.94 61.7592C106.09 61.6032 106.258 61.4832 106.444 61.3992C106.636 61.3092 106.834 61.2642 107.038 61.2642C107.332 61.2642 107.59 61.3452 107.812 61.5072C108.034 61.6692 108.205 61.8762 108.325 62.1282C108.451 62.3742 108.514 62.6322 108.514 62.9022C108.514 63.1602 108.466 63.3942 108.37 63.6042C108.274 63.8082 108.142 63.9912 107.974 64.1532C107.812 64.3152 107.62 64.4532 107.398 64.5672C107.182 64.6812 106.951 64.7741 106.705 64.8461C106.567 64.8881 106.417 64.9211 106.255 64.9451C106.099 64.9691 105.934 64.9871 105.76 64.9991C105.586 65.0171 105.412 65.0291 105.238 65.0351C105.064 65.0411 104.896 65.0441 104.734 65.0441ZM109.189 65.0441C108.889 65.0441 108.577 65.0261 108.253 64.9901C107.935 64.9481 107.632 64.8971 107.344 64.8371C107.062 64.7711 106.828 64.6992 106.642 64.6212L107.263 64.1712C107.443 64.1952 107.656 64.2192 107.902 64.2432C108.148 64.2612 108.394 64.2762 108.64 64.2882C108.886 64.3002 109.099 64.3062 109.279 64.3062C109.405 64.3062 109.495 64.3422 109.549 64.4142C109.609 64.4802 109.639 64.5612 109.639 64.6572C109.639 64.7531 109.597 64.8431 109.513 64.9271C109.429 65.0051 109.321 65.0441 109.189 65.0441ZM107.587 60.3372C107.461 60.3372 107.353 60.2952 107.263 60.2112C107.179 60.1212 107.137 60.0162 107.137 59.8962C107.137 59.7762 107.179 59.6712 107.263 59.5812C107.353 59.4912 107.461 59.4462 107.587 59.4462C107.707 59.4462 107.809 59.4912 107.893 59.5812C107.983 59.6712 108.028 59.7762 108.028 59.8962C108.028 60.0162 107.983 60.1212 107.893 60.2112C107.809 60.2952 107.707 60.3372 107.587 60.3372ZM106.354 60.3372C106.228 60.3372 106.12 60.2952 106.03 60.2112C105.946 60.1212 105.904 60.0162 105.904 59.8962C105.904 59.7762 105.946 59.6712 106.03 59.5812C106.12 59.4912 106.228 59.4462 106.354 59.4462C106.474 59.4462 106.576 59.4912 106.66 59.5812C106.75 59.6712 106.795 59.7762 106.795 59.8962C106.795 60.0162 106.75 60.1212 106.66 60.2112C106.576 60.2952 106.474 60.3372 106.354 60.3372ZM114.923 65.0441C114.671 65.0441 114.44 65.0291 114.23 64.9991C114.02 64.9631 113.831 64.9001 113.663 64.8101C113.495 64.7201 113.354 64.5912 113.24 64.4232C113.126 64.2492 113.039 64.0212 112.979 63.7392L113.51 63.4242C113.588 63.6642 113.684 63.8472 113.798 63.9732C113.912 64.0992 114.065 64.1862 114.257 64.2342C114.455 64.2822 114.707 64.3062 115.013 64.3062C115.139 64.3062 115.229 64.3422 115.283 64.4142C115.343 64.4802 115.373 64.5612 115.373 64.6572C115.373 64.7531 115.331 64.8431 115.247 64.9271C115.163 65.0051 115.055 65.0441 114.923 65.0441ZM109.19 65.0441L109.271 64.3062C109.583 64.3062 109.889 64.2822 110.189 64.2342C110.489 64.1862 110.783 64.1172 111.071 64.0272C111.359 63.9372 111.635 63.8292 111.899 63.7032C112.169 63.5712 112.424 63.4212 112.664 63.2532C112.508 63.1152 112.328 62.9952 112.124 62.8932C111.92 62.7912 111.695 62.7132 111.449 62.6592C111.209 62.5992 110.954 62.5692 110.684 62.5692C110.588 62.5692 110.498 62.5722 110.414 62.5782C110.33 62.5842 110.246 62.5962 110.162 62.6142C110.078 62.6262 109.982 62.6442 109.874 62.6682L109.73 61.9842C109.892 61.9362 110.054 61.9002 110.216 61.8762C110.378 61.8462 110.534 61.8312 110.684 61.8312C110.996 61.8312 111.278 61.8702 111.53 61.9482C111.782 62.0202 112.01 62.1102 112.214 62.2182C112.424 62.3262 112.619 62.4342 112.799 62.5422C112.985 62.6502 113.165 62.7432 113.339 62.8212C113.513 62.8932 113.693 62.9292 113.879 62.9292H114.068L114.131 63.5772C113.873 63.5772 113.636 63.6132 113.42 63.6852C113.204 63.7572 112.991 63.8502 112.781 63.9642C112.577 64.0722 112.361 64.1892 112.133 64.3152C111.905 64.4352 111.653 64.5522 111.377 64.6662C111.101 64.7741 110.783 64.8641 110.423 64.9361C110.069 65.0081 109.658 65.0441 109.19 65.0441ZM114.92 65.0441L115.01 64.3062C115.31 64.3062 115.544 64.2852 115.712 64.2432C115.88 64.1952 116.006 64.1082 116.09 63.9822C116.18 63.8502 116.252 63.6612 116.306 63.4152C116.36 63.1692 116.426 62.8482 116.504 62.4522L117.206 62.5872C117.182 62.6952 117.155 62.8152 117.125 62.9472C117.095 63.0792 117.068 63.2112 117.044 63.3432C117.026 63.4692 117.017 63.5802 117.017 63.6762C117.017 63.7662 117.023 63.8502 117.035 63.9282C117.047 64.0062 117.092 64.0722 117.17 64.1262C117.248 64.1802 117.38 64.2252 117.566 64.2612C117.752 64.2912 118.019 64.3062 118.367 64.3062C118.493 64.3062 118.583 64.3422 118.637 64.4142C118.697 64.4802 118.727 64.5612 118.727 64.6572C118.727 64.7531 118.685 64.8431 118.601 64.9271C118.517 65.0051 118.409 65.0441 118.277 65.0441C117.911 65.0441 117.62 65.0261 117.404 64.9901C117.188 64.9481 117.023 64.8881 116.909 64.8101C116.801 64.7321 116.723 64.6362 116.675 64.5222C116.633 64.4022 116.6 64.2642 116.576 64.1082L116.846 64.1262C116.75 64.3182 116.645 64.4742 116.531 64.5942C116.423 64.7141 116.297 64.8071 116.153 64.8731C116.009 64.9391 115.835 64.9841 115.631 65.0081C115.433 65.0321 115.196 65.0441 114.92 65.0441ZM117.323 61.5252C117.197 61.5252 117.089 61.4832 116.999 61.3992C116.915 61.3092 116.873 61.2042 116.873 61.0842C116.873 60.9642 116.915 60.8592 116.999 60.7692C117.089 60.6792 117.197 60.6342 117.323 60.6342C117.443 60.6342 117.545 60.6792 117.629 60.7692C117.719 60.8592 117.764 60.9642 117.764 61.0842C117.764 61.2042 117.719 61.3092 117.629 61.3992C117.545 61.4832 117.443 61.5252 117.323 61.5252ZM116.09 61.5252C115.964 61.5252 115.856 61.4832 115.766 61.3992C115.682 61.3092 115.64 61.2042 115.64 61.0842C115.64 60.9642 115.682 60.8592 115.766 60.7692C115.856 60.6792 115.964 60.6342 116.09 60.6342C116.21 60.6342 116.312 60.6792 116.396 60.7692C116.486 60.8592 116.531 60.9642 116.531 61.0842C116.531 61.2042 116.486 61.3092 116.396 61.3992C116.312 61.4832 116.21 61.5252 116.09 61.5252ZM118.278 65.0441L118.359 64.3062C118.701 64.3062 118.941 64.2732 119.079 64.2072C119.217 64.1412 119.295 64.0242 119.313 63.8562C119.337 63.6882 119.343 63.4542 119.331 63.1542L119.16 58.5732H119.889L120.069 63.0732C120.081 63.3912 120.069 63.6732 120.033 63.9192C120.003 64.1652 119.925 64.3722 119.799 64.5402C119.679 64.7082 119.496 64.8341 119.25 64.9181C119.01 65.0021 118.686 65.0441 118.278 65.0441ZM121.443 64.9991L121.263 58.5732H121.992L122.172 64.9991H121.443ZM125.327 67.0871L125.066 66.4031C125.504 66.2591 125.867 66.0941 126.155 65.9081C126.449 65.7221 126.68 65.5241 126.848 65.3141C127.022 65.1041 127.145 64.8911 127.217 64.6752C127.289 64.4532 127.325 64.2402 127.325 64.0362C127.325 63.7422 127.259 63.4452 127.127 63.1452C127.001 62.8392 126.86 62.5512 126.704 62.2812L127.361 61.9482C127.475 62.1582 127.574 62.3652 127.658 62.5692C127.748 62.7732 127.826 62.9652 127.892 63.1452C127.964 63.3252 128.021 63.4902 128.063 63.6402C128.147 63.8982 128.255 64.0752 128.387 64.1712C128.525 64.2612 128.711 64.3062 128.945 64.3062C129.071 64.3062 129.161 64.3422 129.215 64.4142C129.275 64.4802 129.305 64.5612 129.305 64.6572C129.305 64.7531 129.263 64.8431 129.179 64.9271C129.095 65.0051 128.987 65.0441 128.855 65.0441C128.591 65.0441 128.375 64.9991 128.207 64.9091C128.045 64.8131 127.922 64.6902 127.838 64.5402C127.754 64.3842 127.697 64.2222 127.667 64.0542L127.955 64.2162C127.955 64.6122 127.865 64.9721 127.685 65.2961C127.511 65.6261 127.286 65.9111 127.01 66.1511C126.734 66.3971 126.446 66.5981 126.146 66.7541C125.846 66.9101 125.573 67.0211 125.327 67.0871ZM126.758 60.9132C126.632 60.9132 126.524 60.8712 126.434 60.7872C126.35 60.6972 126.308 60.5922 126.308 60.4722C126.308 60.3522 126.35 60.2472 126.434 60.1572C126.524 60.0672 126.632 60.0222 126.758 60.0222C126.878 60.0222 126.98 60.0672 127.064 60.1572C127.154 60.2472 127.199 60.3522 127.199 60.4722C127.199 60.5922 127.154 60.6972 127.064 60.7872C126.98 60.8712 126.878 60.9132 126.758 60.9132ZM128.859 65.0441L128.949 64.3062C129.117 64.3062 129.258 64.2702 129.372 64.1982C129.486 64.1262 129.597 64.0062 129.705 63.8382C129.813 63.6702 129.93 63.4452 130.056 63.1632C130.23 62.7792 130.401 62.4882 130.569 62.2902C130.743 62.0922 130.914 61.9572 131.082 61.8852C131.256 61.8132 131.427 61.7772 131.595 61.7772C131.799 61.7772 131.988 61.8312 132.162 61.9392C132.336 62.0412 132.489 62.1792 132.621 62.3532C132.753 62.5272 132.855 62.7192 132.927 62.9292C133.005 63.1332 133.044 63.3372 133.044 63.5412C133.044 63.9012 132.981 64.1892 132.855 64.4052C132.729 64.6152 132.567 64.7681 132.369 64.8641C132.177 64.9541 131.976 64.9991 131.766 64.9991C131.58 64.9991 131.34 64.9631 131.046 64.8911C130.758 64.8191 130.392 64.6362 129.948 64.3422L130.299 63.7752C130.593 63.9612 130.857 64.0902 131.091 64.1622C131.331 64.2282 131.529 64.2612 131.685 64.2612C131.859 64.2612 131.997 64.2372 132.099 64.1892C132.201 64.1352 132.276 64.0602 132.324 63.9642C132.372 63.8682 132.396 63.7602 132.396 63.6402C132.396 63.4662 132.354 63.2922 132.27 63.1182C132.186 62.9442 132.078 62.8002 131.946 62.6862C131.82 62.5722 131.685 62.5152 131.541 62.5152C131.433 62.5152 131.328 62.5452 131.226 62.6052C131.124 62.6652 131.019 62.7762 130.911 62.9382C130.803 63.1002 130.68 63.3342 130.542 63.6402C130.398 63.9642 130.26 64.2222 130.128 64.4142C130.002 64.6002 129.873 64.7381 129.741 64.8281C129.609 64.9181 129.471 64.9751 129.327 64.9991C129.189 65.0291 129.033 65.0441 128.859 65.0441ZM133.264 67.0691L133.003 66.3851C133.609 66.1931 134.074 65.9621 134.398 65.6921C134.728 65.4281 134.953 65.1521 135.072 64.8641C135.198 64.5762 135.261 64.3002 135.261 64.0362C135.261 63.8682 135.243 63.7062 135.207 63.5502C135.171 63.3942 135.108 63.2172 135.018 63.0192C134.929 62.8212 134.803 62.5752 134.641 62.2812L135.297 61.9482C135.525 62.3382 135.687 62.7072 135.783 63.0552C135.885 63.4032 135.936 63.7092 135.936 63.9732C135.936 64.3512 135.873 64.6932 135.747 64.9991C135.627 65.3051 135.465 65.5751 135.261 65.8091C135.063 66.0491 134.845 66.2531 134.605 66.4211C134.371 66.5891 134.134 66.7271 133.894 66.8351C133.66 66.9431 133.45 67.0211 133.264 67.0691Z" fill="#00093B"/>
<path d="M102.999 74.999H97.9985C96.3417 74.999 94.9985 76.3421 94.9985 77.999V87.999C94.9985 89.6558 96.3417 90.999 97.9985 90.999H102.999C104.655 90.999 105.999 89.6558 105.999 87.999V77.999C105.999 76.3421 104.655 74.999 102.999 74.999Z" fill="white" stroke="#22C55E" stroke-width="1.49998"/>
<path d="M97.9828 86.999L101.601 79.84V79.7804H97.3862V78.2719H103.51V79.8017L99.8876 86.999H97.9828Z" fill="#00093B"/>
<path d="M115.999 74.999H110.999C109.342 74.999 107.999 76.3421 107.999 77.999V87.999C107.999 89.6558 109.342 90.999 110.999 90.999H115.999C117.655 90.999 118.999 89.6558 118.999 87.999V77.999C118.999 76.3421 117.655 74.999 115.999 74.999Z" fill="white" stroke="#22C55E" stroke-width="1.49998"/>
<path d="M110.007 85.4648V84.0117L113.651 78.2717H114.903V80.283H114.162L111.865 83.9179V83.9861H117.043V85.4648H110.007ZM114.196 86.9988V85.0216L114.23 84.3781V78.2717H115.96V86.9988H114.196Z" fill="#00093B"/>
<path d="M128.998 74.9988H123.998C122.341 74.9988 120.998 76.342 120.998 77.9988V87.9988C120.998 89.6557 122.341 90.9988 123.998 90.9988H128.998C130.655 90.9988 131.998 89.6557 131.998 87.9988V77.9988C131.998 76.342 130.655 74.9988 128.998 74.9988Z" fill="white" stroke="#22C55E" stroke-width="1.49998"/>
<path d="M126.402 78.1524C126.851 78.1524 127.283 78.2277 127.698 78.3782C128.115 78.5288 128.487 78.7689 128.814 79.0984C129.144 79.4279 129.404 79.8654 129.594 80.4109C129.787 80.9535 129.885 81.6197 129.888 82.4094C129.888 83.1509 129.804 83.8128 129.636 84.3952C129.472 84.9747 129.235 85.4676 128.925 85.8739C128.615 86.2801 128.242 86.5898 127.804 86.8028C127.367 87.013 126.878 87.1182 126.338 87.1182C125.756 87.1182 125.242 87.0059 124.796 86.7815C124.35 86.5542 123.99 86.246 123.718 85.8568C123.448 85.4648 123.284 85.0244 123.228 84.5358H125.047C125.118 84.854 125.267 85.1011 125.495 85.2773C125.722 85.4506 126.003 85.5372 126.338 85.5372C126.906 85.5372 127.338 85.2901 127.634 84.7957C127.929 84.2986 128.078 83.6182 128.081 82.7546H128.021C127.891 83.0103 127.715 83.2304 127.493 83.4151C127.271 83.5969 127.017 83.7375 126.73 83.837C126.446 83.9364 126.144 83.9861 125.823 83.9861C125.308 83.9861 124.85 83.8654 124.446 83.6239C124.043 83.3824 123.725 83.05 123.492 82.6268C123.259 82.2035 123.142 81.7205 123.142 81.1779C123.139 80.5927 123.274 80.0714 123.547 79.614C123.82 79.1566 124.2 78.7987 124.689 78.5402C125.181 78.2788 125.752 78.1495 126.402 78.1524ZM126.415 79.6012C126.128 79.6012 125.872 79.6694 125.648 79.8058C125.426 79.9421 125.25 80.1254 125.12 80.3555C124.992 80.5856 124.929 80.8427 124.932 81.1268C124.932 81.4137 124.995 81.6722 125.12 81.9023C125.247 82.1296 125.421 82.3114 125.639 82.4478C125.861 82.5813 126.114 82.6481 126.398 82.6481C126.611 82.6481 126.808 82.6083 126.99 82.5287C127.172 82.4492 127.33 82.3398 127.463 82.2006C127.6 82.0586 127.706 81.8952 127.783 81.7106C127.86 81.5259 127.898 81.3299 127.898 81.1225C127.895 80.8469 127.83 80.5941 127.702 80.364C127.574 80.1339 127.398 79.9492 127.173 79.81C126.949 79.6708 126.696 79.6012 126.415 79.6012Z" fill="#00093B"/>
<path d="M141.998 74.9988H136.998C135.341 74.9988 133.998 76.342 133.998 77.9988V87.9988C133.998 89.6557 135.341 90.9988 136.998 90.9988H141.998C143.655 90.9988 144.998 89.6557 144.998 87.9988V77.9988C144.998 76.342 143.655 74.9988 141.998 74.9988Z" fill="white" stroke="#22C55E" stroke-width="1.49998"/>
<path d="M136.426 86.9988V85.6693L139.532 82.7929C139.797 82.5373 140.018 82.3072 140.197 82.1026C140.379 81.8981 140.517 81.6978 140.611 81.5018C140.704 81.3029 140.751 81.0884 140.751 80.8583C140.751 80.6026 140.693 80.3825 140.577 80.1978C140.46 80.0103 140.301 79.8669 140.099 79.7674C139.898 79.6651 139.669 79.614 139.413 79.614C139.146 79.614 138.913 79.668 138.714 79.7759C138.515 79.8839 138.362 80.0387 138.254 80.2404C138.146 80.4421 138.092 80.6822 138.092 80.9606H136.341C136.341 80.3896 136.47 79.8938 136.729 79.4734C136.987 79.0529 137.349 78.7277 137.815 78.4976C138.281 78.2674 138.818 78.1524 139.426 78.1524C140.051 78.1524 140.595 78.2632 141.058 78.4848C141.524 78.7035 141.886 79.0075 142.145 79.3967C142.403 79.7859 142.532 80.2319 142.532 80.7347C142.532 81.0643 142.467 81.3896 142.336 81.7106C142.209 82.0316 141.98 82.3881 141.65 82.7802C141.321 83.1694 140.856 83.6367 140.257 84.1821L138.983 85.4307V85.4903H142.647V86.9988H136.426Z" fill="#00093B"/>
<path d="M134.998 97.9985H99.9984C98.3416 97.9985 96.9984 99.3416 96.9984 100.998V118.998C96.9984 120.655 98.3416 121.998 99.9984 121.998H134.998C136.655 121.998 137.998 120.655 137.998 118.998V100.998C137.998 99.3416 136.655 97.9985 134.998 97.9985Z" fill="#E0F2FE"/>
<path opacity="0.6" d="M101.998 109.998C105.332 107.332 108.665 107.332 111.998 109.998C115.332 112.665 118.665 112.665 121.998 109.998C125.332 111.998 128.665 111.998 131.998 109.998" stroke="#00093B" stroke-width="1.99997" stroke-linecap="round"/>
<path d="M132.998 117.998C134.102 117.998 134.998 117.103 134.998 115.998C134.998 114.894 134.102 113.998 132.998 113.998C131.893 113.998 130.998 114.894 130.998 115.998C130.998 117.103 131.893 117.998 132.998 117.998Z" fill="#22C55E"/>
<g opacity="0.6">
<path opacity="0.3" d="M201.997 49.9992H213.997V63.9992C213.997 68.6659 211.997 71.9992 207.997 73.9992C203.997 75.9992 199.997 75.9992 195.997 73.9992C191.997 71.9992 189.997 68.6659 189.997 63.9992V49.9992H201.997Z" fill="#22C55E"/>
<path d="M196.997 61.9992L199.997 64.9992L206.997 57.9992" stroke="#22C55E" stroke-width="1.99997" stroke-linecap="round" stroke-linejoin="round"/>
<path opacity="0.3" d="M52.9994 207.997H40.9994C39.8948 207.997 38.9994 208.892 38.9994 209.997V217.997C38.9994 219.101 39.8948 219.997 40.9994 219.997H52.9994C54.104 219.997 54.9994 219.101 54.9994 217.997V209.997C54.9994 208.892 54.104 207.997 52.9994 207.997Z" fill="#5A0000"/>
<path opacity="0.5" d="M41.9994 207.997V204.997C41.9994 201.664 43.6661 199.997 46.9994 199.997C50.3327 199.997 51.9994 201.664 51.9994 204.997V207.997" stroke="#5A0000" stroke-width="1.99997"/>
</g>
<g opacity="0.7">
<path d="M59.9991 59.9991L61.9991 64.9991L66.9991 66.9991L61.9991 68.9991L59.9991 73.9991L57.9991 68.9991L52.9991 66.9991L57.9991 64.9991L59.9991 59.9991Z" fill="#22C55E"/>
<path opacity="0.5" d="M199.997 179.997L200.997 182.997L203.997 183.997L200.997 184.997L199.997 187.997L198.997 184.997L195.997 183.997L198.997 182.997L199.997 179.997Z" fill="#5A0000"/>
<path opacity="0.4" d="M174.997 89.9986L175.997 91.9986L177.997 92.9986L175.997 93.9986L174.997 95.9986L173.997 93.9986L171.997 92.9986L173.997 91.9986L174.997 89.9986Z" fill="#00093B"/>
</g>
<path opacity="0.3" d="M74.9988 139.999C88.3321 126.665 99.9988 106.665 109.999 79.9987" stroke="#22C55E" stroke-width="1.99997" stroke-dasharray="4 4"/>
<path opacity="0.3" d="M159.998 144.998C146.664 128.331 136.665 106.665 129.998 79.9987" stroke="#22C55E" stroke-width="1.99997" stroke-dasharray="4 4"/>
<defs>
<linearGradient id="paint0_linear_17_1115" x1="17.9998" y1="17.9997" x2="22017.7" y2="22017.7" gradientUnits="userSpaceOnUse">
<stop stop-color="#5A0000" stop-opacity="0.08"/>
<stop offset="1" stop-color="#00093B" stop-opacity="0.05"/>
</linearGradient>
<linearGradient id="paint1_linear_17_1115" x1="29.9995" y1="139.998" x2="5030" y2="139.998" gradientUnits="userSpaceOnUse">
<stop stop-color="#00093B" stop-opacity="0.8"/>
<stop offset="1" stop-color="#00093B"/>
</linearGradient>
<linearGradient id="paint2_linear_17_1115" x1="56.9991" y1="127.998" x2="3657" y2="127.998" gradientUnits="userSpaceOnUse">
<stop stop-color="#00093B" stop-opacity="0.8"/>
<stop offset="1" stop-color="#00093B"/>
</linearGradient>
<linearGradient id="paint3_linear_17_1115" x1="84.9987" y1="139.998" x2="884.999" y2="139.998" gradientUnits="userSpaceOnUse">
<stop stop-color="#00093B" stop-opacity="0.8"/>
<stop offset="1" stop-color="#00093B"/>
</linearGradient>
<linearGradient id="paint4_linear_17_1115" x1="84.9987" y1="154.998" x2="884.999" y2="154.998" gradientUnits="userSpaceOnUse">
<stop stop-color="#00093B" stop-opacity="0.8"/>
<stop offset="1" stop-color="#00093B"/>
</linearGradient>
<linearGradient id="paint5_linear_17_1115" x1="84.9987" y1="119.998" x2="4057.41" y2="4588.96" gradientUnits="userSpaceOnUse">
<stop stop-color="#F59E0B"/>
<stop offset="1" stop-color="#D97706"/>
</linearGradient>
<linearGradient id="paint6_linear_17_1115" x1="97.4984" y1="129.998" x2="2097.5" y2="2130" gradientUnits="userSpaceOnUse">
<stop stop-color="#22C55E"/>
<stop offset="1" stop-color="#16A34A"/>
</linearGradient>
<linearGradient id="paint7_linear_17_1115" x1="141.998" y1="127.998" x2="3742" y2="127.998" gradientUnits="userSpaceOnUse">
<stop stop-color="#00093B" stop-opacity="0.8"/>
<stop offset="1" stop-color="#00093B"/>
</linearGradient>
<linearGradient id="paint8_linear_17_1115" x1="164.997" y1="139.998" x2="5165" y2="139.998" gradientUnits="userSpaceOnUse">
<stop stop-color="#00093B" stop-opacity="0.8"/>
<stop offset="1" stop-color="#00093B"/>
</linearGradient>
<linearGradient id="paint9_linear_17_1115" x1="149.998" y1="139.998" x2="949.998" y2="139.998" gradientUnits="userSpaceOnUse">
<stop stop-color="#00093B" stop-opacity="0.8"/>
<stop offset="1" stop-color="#00093B"/>
</linearGradient>
<linearGradient id="paint10_linear_17_1115" x1="149.998" y1="154.998" x2="949.998" y2="154.998" gradientUnits="userSpaceOnUse">
<stop stop-color="#00093B" stop-opacity="0.8"/>
<stop offset="1" stop-color="#00093B"/>
</linearGradient>
<linearGradient id="paint11_linear_17_1115" x1="84.9987" y1="29.9995" x2="84.9987" y2="11029.8" gradientUnits="userSpaceOnUse">
<stop stop-color="#00093B"/>
<stop offset="1" stop-color="#1E1E3F"/>
</linearGradient>
<linearGradient id="paint12_linear_17_1115" x1="88.9987" y1="37.9995" x2="88.9987" y2="9437.85" gradientUnits="userSpaceOnUse">
<stop stop-color="#F0F9FF"/>
<stop offset="1" stop-color="#E0F2FE"/>
</linearGradient>
</defs>
</svg>
