<svg width="256" height="256" viewBox="0 0 256 256" fill="none" xmlns="http://www.w3.org/2000/svg">
<path d="M127.998 237.996C188.748 237.996 237.996 188.748 237.996 127.998C237.996 67.2476 188.748 17.9997 127.998 17.9997C67.2476 17.9997 17.9997 67.2476 17.9997 127.998C17.9997 188.748 67.2476 237.996 127.998 237.996Z" fill="url(#paint0_linear_15_839)"/>
<path opacity="0.2" d="M39.9994 179.997H215.997" stroke="#00093B" stroke-width="1.99997"/>
<path opacity="0.1" d="M39.9994 149.998H215.997" stroke="#00093B" stroke-width="0.999984" stroke-dasharray="4 2"/>
<path opacity="0.1" d="M39.9994 119.998H215.997" stroke="#00093B" stroke-width="0.999984" stroke-dasharray="4 2"/>
<path opacity="0.1" d="M39.9994 89.9986H215.997" stroke="#00093B" stroke-width="0.999984" stroke-dasharray="4 2"/>
<path d="M49.9992 179.997V164.997C69.9989 151.664 89.9986 141.664 109.998 134.998C129.998 128.331 149.998 118.331 169.997 104.998C189.997 91.6652 203.33 79.9987 209.997 69.9989V179.997H49.9992Z" fill="url(#paint1_linear_15_839)"/>
<path d="M49.9992 164.997C69.9989 151.664 89.9986 141.664 109.998 134.998C129.998 128.331 149.998 118.331 169.997 104.998C189.997 91.6652 203.33 79.9987 209.997 69.9989" stroke="url(#paint2_linear_15_839)" stroke-width="3.99994" stroke-linecap="round"/>
<path d="M49.9993 168.997C52.2084 168.997 53.9993 167.207 53.9993 164.997C53.9993 162.788 52.2084 160.997 49.9993 160.997C47.7901 160.997 45.9993 162.788 45.9993 164.997C45.9993 167.207 47.7901 168.997 49.9993 168.997Z" fill="#22C55E"/>
<path d="M109.998 138.998C112.207 138.998 113.998 137.207 113.998 134.998C113.998 132.789 112.207 130.998 109.998 130.998C107.789 130.998 105.998 132.789 105.998 134.998C105.998 137.207 107.789 138.998 109.998 138.998Z" fill="#22C55E"/>
<path d="M169.997 108.998C172.207 108.998 173.997 107.208 173.997 104.998C173.997 102.789 172.207 100.998 169.997 100.998C167.788 100.998 165.997 102.789 165.997 104.998C165.997 107.208 167.788 108.998 169.997 108.998Z" fill="#22C55E"/>
<path d="M209.997 74.999C212.758 74.999 214.997 72.7604 214.997 69.999C214.997 67.2376 212.758 64.999 209.997 64.999C207.235 64.999 204.997 67.2376 204.997 69.999C204.997 72.7604 207.235 74.999 209.997 74.999Z" fill="#16A34A"/>
<path d="M209.997 39.9994L219.997 54.9994H214.997V69.9994H204.997V54.9994H199.997L209.997 39.9994Z" fill="url(#paint3_linear_15_839)"/>
<path d="M74.9991 89.9992C86.0448 89.9992 94.9991 81.0449 94.9991 69.9992C94.9991 58.9535 86.0448 49.9992 74.9991 49.9992C63.9535 49.9992 54.9991 58.9535 54.9991 69.9992C54.9991 81.0449 63.9535 89.9992 74.9991 89.9992Z" fill="url(#paint4_linear_15_839)"/>
<path opacity="0.6" d="M74.9991 85.9992C83.8357 85.9992 90.9991 78.8358 90.9991 69.9992C90.9991 61.1627 83.8357 53.9992 74.9991 53.9992C66.1626 53.9992 58.9991 61.1627 58.9991 69.9992C58.9991 78.8358 66.1626 85.9992 74.9991 85.9992Z" fill="#FBBF24"/>
<path d="M74.9991 81.9992C81.6266 81.9992 86.9991 76.6266 86.9991 69.9992C86.9991 63.3718 81.6266 57.9992 74.9991 57.9992C68.3717 57.9992 62.9991 63.3718 62.9991 69.9992C62.9991 76.6266 68.3717 81.9992 74.9991 81.9992Z" fill="url(#paint5_linear_15_839)"/>
<path d="M74.5605 77.6355V61.2722H75.6088V77.6355H74.5605ZM77.341 66.6734C77.2899 66.1577 77.0704 65.7572 76.6826 65.4717C76.2948 65.1862 75.7686 65.0434 75.1038 65.0434C74.6521 65.0434 74.2707 65.1073 73.9597 65.2352C73.6486 65.3587 73.4099 65.5313 73.2438 65.7529C73.0818 65.9745 73.0009 66.2259 73.0009 66.5072C72.9923 66.7415 73.0413 66.9461 73.1479 67.1208C73.2587 67.2955 73.4099 67.4468 73.6017 67.5746C73.7935 67.6982 74.0151 67.8069 74.2665 67.9006C74.5179 67.9901 74.7863 68.0668 75.0719 68.1307L76.248 68.412C76.819 68.5398 77.3431 68.7103 77.8204 68.9233C78.2977 69.1364 78.711 69.3985 79.0604 69.7095C79.4099 70.0206 79.6804 70.3871 79.8722 70.8089C80.0682 71.2308 80.1684 71.7145 80.1726 72.2599C80.1684 73.061 79.9638 73.7556 79.559 74.3437C79.1584 74.9275 78.5789 75.3813 77.8204 75.7052C77.0661 76.0248 76.1564 76.1846 75.091 76.1846C74.0342 76.1846 73.1138 76.0226 72.3297 75.6988C71.5499 75.3749 70.9405 74.8955 70.5016 74.2606C70.067 73.6214 69.839 72.8309 69.8177 71.8892H72.4959C72.5257 72.3281 72.6514 72.6946 72.873 72.9886C73.0989 73.2784 73.3993 73.4978 73.7743 73.647C74.1535 73.7919 74.5818 73.8643 75.0591 73.8643C75.5278 73.8643 75.9348 73.7961 76.2799 73.6598C76.6294 73.5234 76.9 73.3338 77.0917 73.0909C77.2835 72.848 77.3793 72.5689 77.3793 72.2535C77.3793 71.9595 77.292 71.7123 77.1173 71.5121C76.9468 71.3118 76.6954 71.1413 76.363 71.0007C76.0349 70.8601 75.6322 70.7322 75.1549 70.6172L73.7295 70.2592C72.6259 69.9908 71.7544 69.571 71.1152 69C70.476 68.429 70.1586 67.6598 70.1628 66.6925C70.1586 65.8999 70.3695 65.2075 70.7956 64.6152C71.226 64.0228 71.8162 63.5605 72.5662 63.2281C73.3162 62.8957 74.1685 62.7295 75.123 62.7295C76.0946 62.7295 76.9426 62.8957 77.667 63.2281C78.3957 63.5605 78.9624 64.0228 79.3672 64.6152C79.7721 65.2075 79.9809 65.8935 79.9937 66.6734H77.341Z" fill="#5A0000"/>
<path d="M160.998 61.9995C169.834 61.9995 176.998 54.8361 176.998 45.9995C176.998 37.163 169.834 29.9995 160.998 29.9995C152.161 29.9995 144.998 37.163 144.998 45.9995C144.998 54.8361 152.161 61.9995 160.998 61.9995Z" fill="url(#paint6_linear_15_839)"/>
<path opacity="0.6" d="M160.998 57.9995C167.625 57.9995 172.998 52.627 172.998 45.9995C172.998 39.3721 167.625 33.9995 160.998 33.9995C154.37 33.9995 148.998 39.3721 148.998 45.9995C148.998 52.627 154.37 57.9995 160.998 57.9995Z" fill="#FBBF24"/>
<path d="M160.998 54.9995C165.968 54.9995 169.998 50.9701 169.998 45.9995C169.998 41.029 165.968 36.9995 160.998 36.9995C156.027 36.9995 151.998 41.029 151.998 45.9995C151.998 50.9701 156.027 54.9995 160.998 54.9995Z" fill="url(#paint7_linear_15_839)"/>
<path d="M160.657 52.2722V39.5452H161.472V52.2722H160.657ZM162.819 43.7461C162.779 43.3451 162.609 43.0335 162.307 42.8115C162.006 42.5894 161.596 42.4784 161.079 42.4784C160.728 42.4784 160.431 42.5281 160.189 42.6275C159.947 42.7236 159.762 42.8579 159.632 43.0302C159.506 43.2026 159.444 43.3981 159.444 43.6168C159.437 43.7991 159.475 43.9582 159.558 44.0941C159.644 44.23 159.762 44.3477 159.911 44.4471C160.06 44.5432 160.232 44.6277 160.428 44.7006C160.623 44.7702 160.832 44.8299 161.054 44.8796L161.969 45.0984C162.413 45.1978 162.821 45.3304 163.192 45.4961C163.563 45.6618 163.885 45.8656 164.157 46.1076C164.428 46.3495 164.639 46.6346 164.788 46.9627C164.94 47.2908 165.018 47.667 165.022 48.0912C165.018 48.7143 164.859 49.2545 164.544 49.7119C164.233 50.166 163.782 50.519 163.192 50.7709C162.605 51.0194 161.898 51.1437 161.069 51.1437C160.247 51.1437 159.531 51.0178 158.922 50.7659C158.315 50.514 157.841 50.1411 157.5 49.6473C157.162 49.1501 156.984 48.5353 156.968 47.8029H159.051C159.074 48.1442 159.172 48.4293 159.344 48.658C159.52 48.8833 159.753 49.054 160.045 49.17C160.34 49.2827 160.673 49.3391 161.044 49.3391C161.409 49.3391 161.725 49.286 161.994 49.18C162.266 49.0739 162.476 48.9264 162.625 48.7375C162.774 48.5486 162.849 48.3315 162.849 48.0862C162.849 47.8575 162.781 47.6653 162.645 47.5095C162.513 47.3538 162.317 47.2212 162.059 47.1118C161.803 47.0024 161.49 46.903 161.119 46.8135L160.01 46.5351C159.152 46.3263 158.474 45.9999 157.977 45.5557C157.48 45.1116 157.233 44.5134 157.236 43.761C157.233 43.1446 157.397 42.606 157.728 42.1453C158.063 41.6846 158.522 41.325 159.105 41.0665C159.689 40.8079 160.352 40.6787 161.094 40.6787C161.85 40.6787 162.509 40.8079 163.073 41.0665C163.639 41.325 164.08 41.6846 164.395 42.1453C164.71 42.606 164.872 43.1396 164.882 43.7461H162.819Z" fill="#5A0000"/>
<path d="M106.999 108.999C113.626 108.999 118.999 103.626 118.999 96.9987C118.999 90.3712 113.626 84.9987 106.999 84.9987C100.371 84.9987 94.9985 90.3712 94.9985 96.9987C94.9985 103.626 100.371 108.999 106.999 108.999Z" fill="url(#paint8_linear_15_839)"/>
<path opacity="0.6" d="M106.999 105.999C111.969 105.999 115.999 101.969 115.999 96.9987C115.999 92.0281 111.969 87.9987 106.999 87.9987C102.028 87.9987 97.9985 92.0281 97.9985 96.9987C97.9985 101.969 102.028 105.999 106.999 105.999Z" fill="#FBBF24"/>
<path d="M106.999 102.999C110.312 102.999 112.999 100.312 112.999 96.9987C112.999 93.6849 110.312 90.9987 106.999 90.9987C103.685 90.9987 100.999 93.6849 100.999 96.9987C100.999 100.312 103.685 102.999 106.999 102.999Z" fill="url(#paint9_linear_15_839)"/>
<path d="M106.73 100.999V90.9988H107.371V100.999H106.73ZM108.43 94.2995C108.398 93.9844 108.264 93.7396 108.027 93.5652C107.79 93.3907 107.469 93.3034 107.062 93.3034C106.786 93.3034 106.553 93.3425 106.363 93.4206C106.173 93.4962 106.027 93.6016 105.926 93.737C105.827 93.8725 105.777 94.0261 105.777 94.198C105.772 94.3412 105.802 94.4662 105.867 94.573C105.935 94.6797 106.027 94.7722 106.145 94.8503C106.262 94.9258 106.397 94.9922 106.551 95.0495C106.704 95.1042 106.868 95.1511 107.043 95.1901L107.762 95.362C108.111 95.4401 108.431 95.5443 108.723 95.6745C109.014 95.8047 109.267 95.9649 109.48 96.155C109.694 96.3451 109.859 96.569 109.976 96.8268C110.096 97.0846 110.157 97.3802 110.16 97.7135C110.157 98.2031 110.032 98.6276 109.785 98.987C109.54 99.3437 109.186 99.6211 108.723 99.819C108.262 100.014 107.706 100.112 107.055 100.112C106.409 100.112 105.846 100.013 105.367 99.8151C104.891 99.6172 104.518 99.3242 104.25 98.9362C103.984 98.5456 103.845 98.0625 103.832 97.487H105.469C105.487 97.7552 105.564 97.9792 105.699 98.1588C105.837 98.3359 106.021 98.47 106.25 98.5612C106.482 98.6497 106.743 98.694 107.035 98.694C107.322 98.694 107.57 98.6523 107.781 98.569C107.995 98.4857 108.16 98.3698 108.277 98.2213C108.394 98.0729 108.453 97.9023 108.453 97.7096C108.453 97.5299 108.4 97.3789 108.293 97.2565C108.189 97.1341 108.035 97.03 107.832 96.944C107.631 96.8581 107.385 96.78 107.094 96.7096L106.223 96.4909C105.548 96.3268 105.016 96.0703 104.625 95.7214C104.234 95.3724 104.04 94.9024 104.043 94.3112C104.04 93.8269 104.169 93.4037 104.43 93.0417C104.693 92.6798 105.053 92.3972 105.512 92.1941C105.97 91.991 106.491 91.8894 107.074 91.8894C107.668 91.8894 108.186 91.991 108.629 92.1941C109.074 92.3972 109.421 92.6798 109.668 93.0417C109.915 93.4037 110.043 93.823 110.051 94.2995H108.43Z" fill="#5A0000"/>
<path d="M207.997 44.9993H181.997C175.37 44.9993 169.997 50.3719 169.997 56.9993C169.997 63.6267 175.37 68.9993 181.997 68.9993H207.997C214.625 68.9993 219.997 63.6267 219.997 56.9993C219.997 50.3719 214.625 44.9993 207.997 44.9993Z" fill="#22C55E"/>
<path d="M181.145 59.6698V53.6358H182.67V59.6698H181.145ZM178.891 57.4155V55.89H184.925V57.4155H178.891ZM186.561 59.4652V58.0121L190.204 52.2722H191.457V54.2835H190.716L188.419 57.9184V57.9866H193.596V59.4652H186.561ZM190.75 60.9993V59.0221L190.784 58.3786V52.2722H192.514V60.9993H190.75ZM198.013 61.1186C197.411 61.1186 196.874 61.0078 196.403 60.7862C195.934 60.5646 195.562 60.2593 195.286 59.8701C195.01 59.4809 194.867 59.0348 194.856 58.532H196.645C196.665 58.8701 196.807 59.1442 197.072 59.3544C197.336 59.5647 197.65 59.6698 198.013 59.6698C198.303 59.6698 198.559 59.6059 198.78 59.478C199.005 59.3473 199.179 59.1669 199.304 58.9368C199.432 58.7039 199.496 58.4368 199.496 58.1357C199.496 57.8289 199.431 57.559 199.3 57.3261C199.172 57.0931 198.995 56.9113 198.768 56.7806C198.54 56.6499 198.28 56.5832 197.988 56.5803C197.732 56.5803 197.483 56.6329 197.242 56.738C197.003 56.8431 196.817 56.9866 196.684 57.1684L195.043 56.8744L195.457 52.2722H200.792V53.7807H196.978L196.752 55.9667H196.803C196.956 55.7508 197.188 55.5718 197.498 55.4298C197.807 55.2877 198.154 55.2167 198.537 55.2167C199.063 55.2167 199.532 55.3403 199.944 55.5875C200.356 55.8346 200.681 56.1741 200.919 56.6059C201.158 57.0349 201.276 57.5292 201.273 58.0888C201.276 58.6769 201.14 59.1996 200.864 59.657C200.591 60.1115 200.209 60.4695 199.718 60.7308C199.229 60.9894 198.661 61.1186 198.013 61.1186ZM207.337 59.363V58.9027C207.337 58.5533 207.411 58.2323 207.559 57.9397C207.709 57.6442 207.926 57.4084 208.211 57.2323C208.497 57.0533 208.847 56.9639 209.259 56.9639C209.676 56.9639 210.027 57.0519 210.311 57.2281C210.598 57.4042 210.814 57.64 210.959 57.9354C211.107 58.228 211.181 58.5505 211.181 58.9027V59.363C211.181 59.7124 211.107 60.0348 210.959 60.3303C210.811 60.6229 210.594 60.8573 210.307 61.0334C210.02 61.2124 209.671 61.3019 209.259 61.3019C208.841 61.3019 208.49 61.2124 208.206 61.0334C207.922 60.8573 207.706 60.6229 207.559 60.3303C207.411 60.0348 207.337 59.7124 207.337 59.363ZM208.577 58.9027V59.363C208.577 59.5647 208.625 59.755 208.722 59.934C208.821 60.1129 209 60.2024 209.259 60.2024C209.517 60.2024 209.693 60.1144 209.787 59.9382C209.884 59.7621 209.932 59.5703 209.932 59.363V58.9027C209.932 58.6954 209.887 58.5022 209.796 58.3232C209.705 58.1442 209.526 58.0547 209.259 58.0547C209.003 58.0547 208.826 58.1442 208.726 58.3232C208.627 58.5022 208.577 58.6954 208.577 58.9027ZM202.858 54.3687V53.9085C202.858 53.5562 202.934 53.2338 203.084 52.9412C203.235 52.6457 203.452 52.4099 203.736 52.2338C204.023 52.0577 204.37 51.9696 204.776 51.9696C205.196 51.9696 205.549 52.0577 205.833 52.2338C206.117 52.4099 206.333 52.6457 206.48 52.9412C206.628 53.2338 206.702 53.5562 206.702 53.9085V54.3687C206.702 54.721 206.627 55.0434 206.476 55.336C206.328 55.6286 206.111 55.863 205.824 56.0391C205.54 56.2124 205.191 56.2991 204.776 56.2991C204.361 56.2991 204.01 56.211 203.723 56.0349C203.439 55.8559 203.223 55.6215 203.076 55.3318C202.931 55.0392 202.858 54.7181 202.858 54.3687ZM204.107 53.9085V54.3687C204.107 54.5761 204.155 54.7679 204.252 54.944C204.351 55.1201 204.526 55.2082 204.776 55.2082C205.037 55.2082 205.215 55.1201 205.309 54.944C205.405 54.7679 205.454 54.5761 205.454 54.3687V53.9085C205.454 53.7011 205.408 53.5079 205.317 53.329C205.226 53.15 205.046 53.0605 204.776 53.0605C204.523 53.0605 204.348 53.1514 204.252 53.3332C204.155 53.515 204.107 53.7068 204.107 53.9085ZM203.421 60.9993L209.421 52.2722H210.537L204.537 60.9993H203.421Z" fill="white"/>
<path opacity="0.5" d="M34.9995 202.997C36.6564 202.997 37.9995 201.654 37.9995 199.997C37.9995 198.34 36.6564 196.997 34.9995 196.997C33.3427 196.997 31.9995 198.34 31.9995 199.997C31.9995 201.654 33.3427 202.997 34.9995 202.997Z" fill="#22C55E"/>
<path opacity="0.6" d="M219.997 162.998C221.653 162.998 222.997 161.654 222.997 159.998C222.997 158.341 221.653 156.998 219.997 156.998C218.34 156.998 216.997 158.341 216.997 159.998C216.997 161.654 218.34 162.998 219.997 162.998Z" fill="#FBBF24"/>
<path opacity="0.3" d="M64.999 191.997C66.1036 191.997 66.999 191.102 66.999 189.997C66.999 188.893 66.1036 187.997 64.999 187.997C63.8945 187.997 62.999 188.893 62.999 189.997C62.999 191.102 63.8945 191.997 64.999 191.997Z" fill="#00093B"/>
<g opacity="0.7">
<path d="M59.9992 34.9995L61.9992 39.9995L66.9992 41.9995L61.9992 43.9995L59.9992 48.9995L57.9992 43.9995L52.9992 41.9995L57.9992 39.9995L59.9992 34.9995Z" fill="#FBBF24"/>
<path d="M179.997 54.9991L180.997 57.9991L183.997 58.9991L180.997 59.9991L179.997 62.9991L178.997 59.9991L175.997 58.9991L178.997 57.9991L179.997 54.9991Z" fill="#22C55E"/>
</g>
<defs>
<linearGradient id="paint0_linear_15_839" x1="17.9997" y1="17.9997" x2="22017.7" y2="22017.7" gradientUnits="userSpaceOnUse">
<stop stop-color="#00093B" stop-opacity="0.08"/>
<stop offset="1" stop-color="#22C55E" stop-opacity="0.05"/>
</linearGradient>
<linearGradient id="paint1_linear_15_839" x1="49.9992" y1="11069.8" x2="10320.4" y2="-3868.93" gradientUnits="userSpaceOnUse">
<stop stop-color="#22C55E" stop-opacity="0.3"/>
<stop offset="1" stop-color="#22C55E" stop-opacity="0.1"/>
</linearGradient>
<linearGradient id="paint2_linear_15_839" x1="49.9992" y1="9569.85" x2="49.9992" y2="69.9989" gradientUnits="userSpaceOnUse">
<stop stop-color="#22C55E"/>
<stop offset="1" stop-color="#16A34A"/>
</linearGradient>
<linearGradient id="paint3_linear_15_839" x1="199.997" y1="3040" x2="199.997" y2="39.9994" gradientUnits="userSpaceOnUse">
<stop stop-color="#22C55E"/>
<stop offset="1" stop-color="#16A34A"/>
</linearGradient>
<linearGradient id="paint4_linear_15_839" x1="54.9991" y1="49.9992" x2="4055" y2="4050" gradientUnits="userSpaceOnUse">
<stop stop-color="#FCD34D"/>
<stop offset="0.5" stop-color="#FBBF24"/>
<stop offset="1" stop-color="#F59E0B"/>
</linearGradient>
<linearGradient id="paint5_linear_15_839" x1="62.9991" y1="57.9992" x2="2463" y2="2458" gradientUnits="userSpaceOnUse">
<stop stop-color="#FCD34D"/>
<stop offset="0.5" stop-color="#FBBF24"/>
<stop offset="1" stop-color="#F59E0B"/>
</linearGradient>
<linearGradient id="paint6_linear_15_839" x1="144.998" y1="29.9995" x2="3345" y2="3230" gradientUnits="userSpaceOnUse">
<stop stop-color="#FCD34D"/>
<stop offset="0.5" stop-color="#FBBF24"/>
<stop offset="1" stop-color="#F59E0B"/>
</linearGradient>
<linearGradient id="paint7_linear_15_839" x1="151.998" y1="36.9995" x2="1952" y2="1837" gradientUnits="userSpaceOnUse">
<stop stop-color="#FCD34D"/>
<stop offset="0.5" stop-color="#FBBF24"/>
<stop offset="1" stop-color="#F59E0B"/>
</linearGradient>
<linearGradient id="paint8_linear_15_839" x1="94.9985" y1="84.9987" x2="2495" y2="2485" gradientUnits="userSpaceOnUse">
<stop stop-color="#FCD34D"/>
<stop offset="0.5" stop-color="#FBBF24"/>
<stop offset="1" stop-color="#F59E0B"/>
</linearGradient>
<linearGradient id="paint9_linear_15_839" x1="100.999" y1="90.9987" x2="1301" y2="1291" gradientUnits="userSpaceOnUse">
<stop stop-color="#FCD34D"/>
<stop offset="0.5" stop-color="#FBBF24"/>
<stop offset="1" stop-color="#F59E0B"/>
</linearGradient>
</defs>
</svg>
