<svg width="256" height="256" viewBox="0 0 256 256" fill="none" xmlns="http://www.w3.org/2000/svg">
<path d="M127.998 237.996C188.748 237.996 237.996 188.748 237.996 127.998C237.996 67.2476 188.748 17.9997 127.998 17.9997C67.2476 17.9997 17.9997 67.2476 17.9997 127.998C17.9997 188.748 67.2476 237.996 127.998 237.996Z" fill="url(#paint0_linear_12_708)"/>
<path d="M127.998 101.999C140.149 101.999 149.998 92.1493 149.998 79.9991C149.998 67.8488 140.149 57.9991 127.998 57.9991C115.848 57.9991 105.998 67.8488 105.998 79.9991C105.998 92.1493 115.848 101.999 127.998 101.999Z" fill="url(#paint1_linear_12_708)"/>
<path d="M127.998 154.998C143.462 154.998 155.998 139.328 155.998 119.998C155.998 100.668 143.462 84.9987 127.998 84.9987C112.534 84.9987 99.9984 100.668 99.9984 119.998C99.9984 139.328 112.534 154.998 127.998 154.998Z" fill="url(#paint2_linear_12_708)"/>
<path d="M99.9987 104.998C93.332 101.665 88.332 103.332 84.9987 109.998L94.9987 124.998C98.332 120.332 101.665 118.665 104.999 119.998L99.9987 104.998Z" fill="url(#paint3_linear_12_708)"/>
<path d="M155.998 104.998C162.664 101.665 167.664 103.332 170.998 109.998L160.998 124.998C157.664 120.332 154.331 118.665 150.998 119.998L155.998 104.998Z" fill="url(#paint4_linear_12_708)"/>
<path opacity="0.3" d="M127.998 140.998C137.939 140.998 145.998 138.312 145.998 134.998C145.998 131.684 137.939 128.998 127.998 128.998C118.057 128.998 109.998 131.684 109.998 134.998C109.998 138.312 118.057 140.998 127.998 140.998Z" fill="#00093B"/>
<path opacity="0.4" d="M109.998 134.998C109.998 131.665 112.665 129.331 117.998 127.998C124.665 126.665 131.332 126.665 137.998 127.998C143.332 129.331 145.998 131.665 145.998 134.998" stroke="#00093B" stroke-width="1.99997"/>
<path d="M197.997 159.997H225.997V191.997C225.997 202.664 221.331 210.664 211.997 215.997C202.664 221.331 193.331 221.331 183.997 215.997C174.664 210.664 169.997 202.664 169.997 191.997V159.997H197.997Z" fill="url(#paint5_linear_12_708)"/>
<path opacity="0.5" d="M197.997 159.997H225.997V191.997C225.997 202.664 221.331 210.664 211.997 215.997C202.664 221.331 193.331 221.331 183.997 215.997C174.664 210.664 169.997 202.664 169.997 191.997V159.997H197.997Z" stroke="#16A34A" stroke-width="1.99997"/>
<path d="M185.997 187.997L193.997 195.997L211.997 177.997" stroke="white" stroke-width="3.99994" stroke-linecap="round" stroke-linejoin="round"/>
<path opacity="0.6" d="M49.9993 62.9991C51.6561 62.9991 52.9993 61.656 52.9993 59.9991C52.9993 58.3423 51.6561 56.9991 49.9993 56.9991C48.3424 56.9991 46.9993 58.3423 46.9993 59.9991C46.9993 61.656 48.3424 62.9991 49.9993 62.9991Z" fill="#22C55E"/>
<path opacity="0.3" d="M205.997 93.9987C208.206 93.9987 209.997 92.2078 209.997 89.9987C209.997 87.7895 208.206 85.9987 205.997 85.9987C203.788 85.9987 201.997 87.7895 201.997 89.9987C201.997 92.2078 203.788 93.9987 205.997 93.9987Z" fill="#5A0000"/>
<path opacity="0.4" d="M59.9991 182.997C61.656 182.997 62.9991 181.654 62.9991 179.997C62.9991 178.34 61.656 176.997 59.9991 176.997C58.3423 176.997 56.9991 178.34 56.9991 179.997C56.9991 181.654 58.3423 182.997 59.9991 182.997Z" fill="#00093B"/>
<path opacity="0.5" d="M199.997 202.997C201.654 202.997 202.997 201.654 202.997 199.997C202.997 198.34 201.654 196.997 199.997 196.997C198.34 196.997 196.997 198.34 196.997 199.997C196.997 201.654 198.34 202.997 199.997 202.997Z" fill="#22C55E"/>
<path opacity="0.3" d="M29.9995 139.998C43.3329 146.664 56.6662 148.331 69.9995 144.998" stroke="#22C55E" stroke-width="1.99997" stroke-dasharray="4 4"/>
<path opacity="0.2" d="M185.997 119.998C195.33 126.665 204.997 128.331 214.997 124.998" stroke="#5A0000" stroke-width="1.99997" stroke-dasharray="4 4"/>
<defs>
<linearGradient id="paint0_linear_12_708" x1="17.9997" y1="17.9997" x2="22017.7" y2="22017.7" gradientUnits="userSpaceOnUse">
<stop stop-color="#00093B" stop-opacity="0.1"/>
<stop offset="1" stop-color="#5A0000" stop-opacity="0.05"/>
</linearGradient>
<linearGradient id="paint1_linear_12_708" x1="105.998" y1="57.9991" x2="105.998" y2="4458" gradientUnits="userSpaceOnUse">
<stop stop-color="#00093B"/>
<stop offset="1" stop-color="#00093B" stop-opacity="0.8"/>
</linearGradient>
<linearGradient id="paint2_linear_12_708" x1="99.9984" y1="84.9987" x2="99.9984" y2="7084.89" gradientUnits="userSpaceOnUse">
<stop stop-color="#00093B"/>
<stop offset="1" stop-color="#00093B" stop-opacity="0.8"/>
</linearGradient>
<linearGradient id="paint3_linear_12_708" x1="84.9987" y1="103.332" x2="84.9987" y2="2270" gradientUnits="userSpaceOnUse">
<stop stop-color="#00093B"/>
<stop offset="1" stop-color="#00093B" stop-opacity="0.8"/>
</linearGradient>
<linearGradient id="paint4_linear_12_708" x1="150.998" y1="103.332" x2="150.998" y2="2270" gradientUnits="userSpaceOnUse">
<stop stop-color="#00093B"/>
<stop offset="1" stop-color="#00093B" stop-opacity="0.8"/>
</linearGradient>
<linearGradient id="paint5_linear_12_708" x1="169.997" y1="159.997" x2="6155.75" y2="5746.7" gradientUnits="userSpaceOnUse">
<stop stop-color="#22C55E"/>
<stop offset="1" stop-color="#16A34A"/>
</linearGradient>
</defs>
</svg>
