<svg width="15" height="20" viewBox="0 0 15 20" fill="none" xmlns="http://www.w3.org/2000/svg">
<path d="M6.72249 19.5769C1.05246 11.357 0 10.5134 0 7.4925C0 3.35449 3.35449 0 7.4925 0C11.6305 0 14.985 3.35449 14.985 7.4925C14.985 10.5134 13.9325 11.357 8.26251 19.5769C7.89042 20.1144 7.09454 20.1144 6.72249 19.5769ZM7.4925 10.6144C9.21667 10.6144 10.6144 9.21667 10.6144 7.4925C10.6144 5.76833 9.21667 4.37063 7.4925 4.37063C5.76833 4.37063 4.37063 5.76833 4.37063 7.4925C4.37063 9.21667 5.76833 10.6144 7.4925 10.6144Z" fill="#5A0000"/>
</svg>
