<svg width="20" height="20" viewBox="0 0 20 20" fill="none" xmlns="http://www.w3.org/2000/svg">
<g clip-path="url(#clip0_99_3041)">
<path d="M13.3205 4.99485L6.3155 12.143C6.00318 12.4553 5.82772 12.8789 5.82772 13.3206C5.82772 13.7623 6.00318 14.1859 6.3155 14.4982C6.62783 14.8106 7.05143 14.986 7.49312 14.986C7.93482 14.986 8.35842 14.8106 8.67075 14.4982L15.6757 7.35009C16.3002 6.72555 16.6511 5.87849 16.6511 4.99526C16.6511 4.11203 16.3002 3.26498 15.6757 2.64044C15.0512 2.0159 14.2041 1.66504 13.3209 1.66504C12.4376 1.66504 11.5906 2.0159 10.966 2.64044L3.99024 9.75944C3.52019 10.2219 3.14635 10.7728 2.89029 11.3805C2.63423 11.9882 2.50102 12.6405 2.49833 13.2999C2.49565 13.9593 2.62354 14.6127 2.87465 15.2224C3.12575 15.8321 3.49509 16.3861 3.96135 16.8524C4.42762 17.3186 4.98159 17.688 5.59132 17.9391C6.20104 18.1902 6.85444 18.3181 7.51384 18.3154C8.17324 18.3127 8.82558 18.1795 9.43323 17.9234C10.0409 17.6674 10.5918 17.2936 11.0543 16.8235L18.0301 9.7045" stroke="#5A0000" stroke-width="1.66507" stroke-linecap="round" stroke-linejoin="round"/>
</g>
<defs>
<clipPath id="clip0_99_3041">
<rect width="19.9808" height="19.9808" fill="white"/>
</clipPath>
</defs>
</svg>
