<svg width="20" height="20" viewBox="0 0 20 20" fill="none" xmlns="http://www.w3.org/2000/svg">
<path d="M11.6555 10.8234H13.3206C13.7622 10.8234 14.1857 10.9988 14.4979 11.3111C14.8102 11.6233 14.9856 12.0468 14.9856 12.4884V14.1535C14.9856 14.5951 15.1611 15.0186 15.4733 15.3309C15.7856 15.6431 16.2091 15.8186 16.6507 15.8186C17.0923 15.8186 17.5158 15.6431 17.8281 15.3309C18.1403 15.0186 18.3158 14.5951 18.3158 14.1535V8.32742C18.3159 8.10771 18.2726 7.89013 18.1883 7.68723C18.104 7.48433 17.9804 7.30012 17.8246 7.14522L14.9856 4.16309" stroke="#E7000B" stroke-width="1.66507" stroke-linecap="round" stroke-linejoin="round"/>
<path d="M11.6555 17.4837V4.16312C11.6555 3.72151 11.4801 3.298 11.1678 2.98573C10.8555 2.67347 10.432 2.49805 9.99042 2.49805H4.16267C3.72107 2.49805 3.29755 2.67347 2.98529 2.98573C2.67303 3.298 2.4976 3.72151 2.4976 4.16312V17.4837" stroke="#E7000B" stroke-width="1.66507" stroke-linecap="round" stroke-linejoin="round"/>
<path d="M1.66507 17.4834H12.488" stroke="#E7000B" stroke-width="1.66507" stroke-linecap="round" stroke-linejoin="round"/>
<path d="M2.4976 7.49316H11.6555" stroke="#E7000B" stroke-width="1.66507" stroke-linecap="round" stroke-linejoin="round"/>
</svg>
