<svg width="56" height="56" viewBox="0 0 56 56" fill="none" xmlns="http://www.w3.org/2000/svg">
<mask id="path-1-inside-1_71_9665" fill="white">
<path d="M0 12C0 5.37259 5.37258 0 12 0H43.9964C50.6238 0 55.9964 5.37258 55.9964 12V43.9964C55.9964 50.6238 50.6238 55.9964 43.9964 55.9964H12C5.37259 55.9964 0 50.6238 0 43.9964V12Z"/>
</mask>
<path d="M0 12C0 5.37259 5.37258 0 12 0H43.9964C50.6238 0 55.9964 5.37258 55.9964 12V43.9964C55.9964 50.6238 50.6238 55.9964 43.9964 55.9964H12C5.37259 55.9964 0 50.6238 0 43.9964V12Z" fill="url(#paint0_linear_71_9665)"/>
<path d="M12 0V1.23196H43.9964V0V-1.23196H12V0ZM55.9964 12H54.7644V43.9964H55.9964H57.2283V12H55.9964ZM43.9964 55.9964V54.7644H12V55.9964V57.2283H43.9964V55.9964ZM0 43.9964H1.23196V12H0H-1.23196V43.9964H0ZM12 55.9964V54.7644C6.05298 54.7644 1.23196 49.9434 1.23196 43.9964H0H-1.23196C-1.23196 51.3042 4.6922 57.2283 12 57.2283V55.9964ZM55.9964 43.9964H54.7644C54.7644 49.9434 49.9434 54.7644 43.9964 54.7644V55.9964V57.2283C51.3042 57.2283 57.2283 51.3042 57.2283 43.9964H55.9964ZM43.9964 0V1.23196C49.9434 1.23196 54.7644 6.05298 54.7644 12H55.9964H57.2283C57.2283 4.69219 51.3042 -1.23196 43.9964 -1.23196V0ZM12 0V-1.23196C4.69219 -1.23196 -1.23196 4.6922 -1.23196 12H0H1.23196C1.23196 6.05298 6.05298 1.23196 12 1.23196V0Z" fill="#E5E5E5" mask="url(#path-1-inside-1_71_9665)"/>
<path d="M35.0034 19.0039H21.0123C19.9085 19.0039 19.0136 19.8988 19.0136 21.0026V34.9937C19.0136 36.0976 19.9085 36.9924 21.0123 36.9924H35.0034C36.1073 36.9924 37.0021 36.0976 37.0021 34.9937V21.0026C37.0021 19.8988 36.1073 19.0039 35.0034 19.0039Z" stroke="#CBCED4" stroke-width="1.99872" stroke-linecap="round" stroke-linejoin="round"/>
<path d="M25.0098 26.9989C26.1136 26.9989 27.0085 26.1041 27.0085 25.0002C27.0085 23.8963 26.1136 23.0015 25.0098 23.0015C23.9059 23.0015 23.011 23.8963 23.011 25.0002C23.011 26.1041 23.9059 26.9989 25.0098 26.9989Z" stroke="#CBCED4" stroke-width="1.99872" stroke-linecap="round" stroke-linejoin="round"/>
<path d="M37.0021 30.9964L33.9181 27.9123C33.5432 27.5376 33.035 27.3271 32.505 27.3271C31.975 27.3271 31.4667 27.5376 31.0919 27.9123L22.0117 36.9926" stroke="#CBCED4" stroke-width="1.99872" stroke-linecap="round" stroke-linejoin="round"/>
<defs>
<linearGradient id="paint0_linear_71_9665" x1="27.9982" y1="0" x2="27.9982" y2="55.9964" gradientUnits="userSpaceOnUse">
<stop stop-color="#F5F5F7"/>
<stop offset="1" stop-color="#E5E5E5"/>
</linearGradient>
</defs>
</svg>
