<svg width="20" height="20" viewBox="0 0 20 20" fill="none" xmlns="http://www.w3.org/2000/svg">
<g clip-path="url(#clip0_790_4990)">
<path d="M8.54846 17.4832C8.69461 17.7363 8.9048 17.9465 9.15791 18.0926C9.41103 18.2388 9.69815 18.3157 9.99041 18.3157C10.2827 18.3157 10.5698 18.2388 10.8229 18.0926C11.076 17.9465 11.2862 17.7363 11.4324 17.4832" stroke="#5A0000" stroke-width="1.66507" stroke-linecap="round" stroke-linejoin="round"/>
<path d="M2.71572 12.7594C2.60696 12.8786 2.53518 13.0269 2.50913 13.1861C2.48307 13.3454 2.50385 13.5087 2.56894 13.6564C2.63404 13.804 2.74064 13.9296 2.87577 14.0178C3.01091 14.106 3.16876 14.153 3.33013 14.1531H16.6507C16.812 14.1531 16.9699 14.1063 17.1051 14.0183C17.2404 13.9303 17.3471 13.8049 17.4124 13.6573C17.4776 13.5098 17.4986 13.3464 17.4728 13.1872C17.4469 13.0279 17.3753 12.8796 17.2668 12.7603C16.1595 11.6189 14.9856 10.4059 14.9856 6.66028C14.9856 5.33547 14.4593 4.06492 13.5225 3.12813C12.5858 2.19135 11.3152 1.66507 9.9904 1.66507C8.66559 1.66507 7.39504 2.19135 6.45826 3.12813C5.52147 4.06492 4.9952 5.33547 4.9952 6.66028C4.9952 10.4059 3.82049 11.6189 2.71572 12.7594Z" stroke="#5A0000" stroke-width="1.66507" stroke-linecap="round" stroke-linejoin="round"/>
</g>
<defs>
<clipPath id="clip0_790_4990">
<rect width="19.9808" height="19.9808" fill="white"/>
</clipPath>
</defs>
</svg>
