<svg width="24" height="24" viewBox="0 0 24 24" fill="none" xmlns="http://www.w3.org/2000/svg">
<path d="M17.9885 7.99471C17.9885 6.40443 17.3568 4.87927 16.2323 3.75477C15.1078 2.63027 13.5826 1.99854 11.9923 1.99854C10.4021 1.99854 8.87691 2.63027 7.75241 3.75477C6.62791 4.87927 5.99617 6.40443 5.99617 7.99471C5.99617 14.9902 2.99809 16.989 2.99809 16.989H20.9866C20.9866 16.989 17.9885 14.9902 17.9885 7.99471Z" stroke="#CBCED4" stroke-width="1.99872" stroke-linecap="round" stroke-linejoin="round"/>
<path d="M13.7213 20.9868C13.5456 21.2897 13.2934 21.5411 12.9899 21.7159C12.6865 21.8906 12.3425 21.9826 11.9924 21.9826C11.6422 21.9826 11.2982 21.8906 10.9948 21.7159C10.6913 21.5411 10.4392 21.2897 10.2635 20.9868" stroke="#CBCED4" stroke-width="1.99872" stroke-linecap="round" stroke-linejoin="round"/>
</svg>
