<svg width="20" height="20" viewBox="0 0 20 20" fill="none" xmlns="http://www.w3.org/2000/svg">
<path d="M15.8181 9.1579H4.16266C3.24307 9.1579 2.49759 9.90337 2.49759 10.823V16.6507C2.49759 17.5703 3.24307 18.3158 4.16266 18.3158H15.8181C16.7377 18.3158 17.4832 17.5703 17.4832 16.6507V10.823C17.4832 9.90337 16.7377 9.1579 15.8181 9.1579Z" stroke="#5A0000" stroke-width="1.66507" stroke-linecap="round" stroke-linejoin="round"/>
<path d="M5.82773 9.15785V5.82771C5.82773 4.7237 6.26629 3.66491 7.04695 2.88426C7.8276 2.10361 8.88639 1.66504 9.9904 1.66504C11.0944 1.66504 12.1532 2.10361 12.9339 2.88426C13.7145 3.66491 14.1531 4.7237 14.1531 5.82771V9.15785" stroke="#5A0000" stroke-width="1.66507" stroke-linecap="round" stroke-linejoin="round"/>
</svg>
