<svg width="50" height="50" viewBox="0 0 50 50" fill="none" xmlns="http://www.w3.org/2000/svg">
<g filter="url(#filter0_dd_46_2942)">
<path d="M3 23.9924C3 11.8463 12.8463 2 24.9924 2C37.1384 2 46.9848 11.8463 46.9848 23.9924C46.9848 36.1384 37.1384 45.9848 24.9924 45.9848C12.8463 45.9848 3 36.1384 3 23.9924Z" fill="#5A0000" shape-rendering="crispEdges"/>
<path d="M30.8297 31.4852V29.8201C30.8297 28.9369 30.4789 28.0899 29.8544 27.4654C29.2298 26.8408 28.3828 26.49 27.4996 26.49H22.5044C21.6212 26.49 20.7742 26.8408 20.1496 27.4654C19.5251 28.0899 19.1743 28.9369 19.1743 29.8201V31.4852" stroke="white" stroke-width="1.66507" stroke-linecap="round" stroke-linejoin="round"/>
<path d="M25.002 23.1598C26.8412 23.1598 28.3322 21.6688 28.3322 19.8297C28.3322 17.9905 26.8412 16.4995 25.002 16.4995C23.1628 16.4995 21.6719 17.9905 21.6719 19.8297C21.6719 21.6688 23.1628 23.1598 25.002 23.1598Z" stroke="white" stroke-width="1.66507" stroke-linecap="round" stroke-linejoin="round"/>
</g>
<defs>
<filter id="filter0_dd_46_2942" x="0" y="0" width="49.9848" height="49.9849" filterUnits="userSpaceOnUse" color-interpolation-filters="sRGB">
<feFlood flood-opacity="0" result="BackgroundImageFix"/>
<feColorMatrix in="SourceAlpha" type="matrix" values="0 0 0 0 0 0 0 0 0 0 0 0 0 0 0 0 0 0 127 0" result="hardAlpha"/>
<feMorphology radius="1" operator="erode" in="SourceAlpha" result="effect1_dropShadow_46_2942"/>
<feOffset dy="1"/>
<feGaussianBlur stdDeviation="1"/>
<feComposite in2="hardAlpha" operator="out"/>
<feColorMatrix type="matrix" values="0 0 0 0 0 0 0 0 0 0 0 0 0 0 0 0 0 0 0.1 0"/>
<feBlend mode="normal" in2="BackgroundImageFix" result="effect1_dropShadow_46_2942"/>
<feColorMatrix in="SourceAlpha" type="matrix" values="0 0 0 0 0 0 0 0 0 0 0 0 0 0 0 0 0 0 127 0" result="hardAlpha"/>
<feOffset dy="1"/>
<feGaussianBlur stdDeviation="1.5"/>
<feComposite in2="hardAlpha" operator="out"/>
<feColorMatrix type="matrix" values="0 0 0 0 0 0 0 0 0 0 0 0 0 0 0 0 0 0 0.1 0"/>
<feBlend mode="normal" in2="effect1_dropShadow_46_2942" result="effect2_dropShadow_46_2942"/>
<feBlend mode="normal" in="SourceGraphic" in2="effect2_dropShadow_46_2942" result="shape"/>
</filter>
</defs>
</svg>
