<svg width="20" height="20" viewBox="0 0 20 20" fill="none" xmlns="http://www.w3.org/2000/svg">
<g clip-path="url(#clip0_99_3047)">
<path d="M12.1018 18.0544C12.1334 18.1333 12.1884 18.2005 12.2594 18.2472C12.3303 18.2939 12.4139 18.3177 12.4988 18.3156C12.5837 18.3134 12.6659 18.2853 12.7344 18.235C12.8028 18.1848 12.8543 18.1148 12.8819 18.0345L18.2933 2.2163C18.32 2.14254 18.3251 2.0627 18.308 1.98615C18.2909 1.9096 18.2524 1.83949 18.1969 1.78403C18.1415 1.72857 18.0714 1.69005 17.9948 1.67298C17.9183 1.65591 17.8384 1.661 17.7647 1.68764L1.94652 7.09912C1.86618 7.12667 1.79618 7.17814 1.74594 7.24662C1.69569 7.3151 1.66759 7.39731 1.66542 7.48222C1.66324 7.56712 1.6871 7.65067 1.73377 7.72163C1.78045 7.79259 1.84771 7.84757 1.92654 7.8792L8.52854 10.5267C8.73724 10.6102 8.92686 10.7352 9.08597 10.894C9.24508 11.0528 9.37038 11.2422 9.45432 11.4508L12.1018 18.0544Z" stroke="white" stroke-width="1.66507" stroke-linecap="round" stroke-linejoin="round"/>
<path d="M18.1941 1.78711L9.08618 10.8942" stroke="white" stroke-width="1.66507" stroke-linecap="round" stroke-linejoin="round"/>
</g>
<defs>
<clipPath id="clip0_99_3047">
<rect width="19.9808" height="19.9808" fill="white"/>
</clipPath>
</defs>
</svg>
