<svg width="25" height="24" viewBox="0 0 25 24" fill="none" xmlns="http://www.w3.org/2000/svg">
<path d="M13.9911 2.99805H2.99808C1.89422 2.99805 0.999359 3.89291 0.999359 4.99677V13.991C0.999359 15.0949 1.89422 15.9898 2.99808 15.9898H13.9911C15.0949 15.9898 15.9898 15.0949 15.9898 13.991V4.99677C15.9898 3.89291 15.0949 2.99805 13.9911 2.99805Z" stroke="#CBCED4" stroke-width="1.99872" stroke-linecap="round" stroke-linejoin="round"/>
<path d="M15.9898 7.99512H20.9866L23.9847 10.9932V15.99H21.986" stroke="#CBCED4" stroke-width="1.99872" stroke-linecap="round" stroke-linejoin="round"/>
<path d="M5.4965 20.9866C6.87633 20.9866 7.9949 19.868 7.9949 18.4882C7.9949 17.1083 6.87633 15.9897 5.4965 15.9897C4.11667 15.9897 2.99809 17.1083 2.99809 18.4882C2.99809 19.868 4.11667 20.9866 5.4965 20.9866Z" stroke="#CBCED4" stroke-width="1.99872" stroke-linecap="round" stroke-linejoin="round"/>
<path d="M18.4882 20.9866C19.868 20.9866 20.9866 19.868 20.9866 18.4882C20.9866 17.1083 19.868 15.9897 18.4882 15.9897C17.1084 15.9897 15.9898 17.1083 15.9898 18.4882C15.9898 19.868 17.1084 20.9866 18.4882 20.9866Z" stroke="#CBCED4" stroke-width="1.99872" stroke-linecap="round" stroke-linejoin="round"/>
</svg>
