<svg width="56" height="56" viewBox="0 0 56 56" fill="none" xmlns="http://www.w3.org/2000/svg">
<path d="M0 27.9982C0 12.5352 12.5352 0 27.9982 0C43.4612 0 55.9964 12.5352 55.9964 27.9982C55.9964 43.4612 43.4612 55.9964 27.9982 55.9964C12.5352 55.9964 0 43.4612 0 27.9982Z" fill="#F5F5F7"/>
<path d="M28.0078 17.5024V31.4967" stroke="#5A0000" stroke-width="2.33238" stroke-linecap="round" stroke-linejoin="round"/>
<path d="M33.8388 23.3334L28.0078 17.5024L22.1769 23.3334" stroke="#5A0000" stroke-width="2.33238" stroke-linecap="round" stroke-linejoin="round"/>
<path d="M38.5035 31.4966V36.1613C38.5035 36.7799 38.2578 37.3732 37.8204 37.8106C37.383 38.248 36.7897 38.4937 36.1711 38.4937H19.8445C19.2259 38.4937 18.6326 38.248 18.1952 37.8106C17.7578 37.3732 17.5121 36.7799 17.5121 36.1613V31.4966" stroke="#5A0000" stroke-width="2.33238" stroke-linecap="round" stroke-linejoin="round"/>
</svg>
